<svg xmlns="http://www.w3.org/2000/svg" viewBox="0 0 846.5 1000" style="enable-background:new 0 0 846.5 1000" xml:space="preserve"><path d="M423.2 0C189.5 0 0 109.6 0 377.3S154.4 1000 423.2 1000s423.2-355.1 423.2-622.7S657 0 423.2 0zm-95.4 517.6c-8.8 91-13.6 201.5-8 289.5.9 13.8-17.8 19-24.1 6.6-32.8-64.9-62.7-151.7-78.8-242.8-2.7-15.1 4.9-30.1 18.6-36.8 22.3-11 43.7-23.8 60.3-33.2 1.1-.6 2.1-1.2 3.2-1.8 13.7-7.8 30.3 2.9 28.8 18.5zm301.7 54.2c-16.1 91.1-46 177.9-78.8 242.8-6.2 12.4-24.9 7.2-24.1-6.6 5.5-88.1.7-198.6-8-289.5-1.5-15.6 15.2-26.3 28.8-18.5 1.1.6 2.1 1.2 3.2 1.8 16.6 9.4 38 22.2 60.3 33.2 13.7 6.7 21.3 21.7 18.6 36.8zm-78.9-136c-41.2-23.4-78.1-51.3-127.4-51.3s-86.1 28-127.4 51.3C225.6 475.6 69 576.7 124.1 338.1c26.5-114.7 96.7-162.9 162.4-182 18.2-5.3 37.9.4 50.4 14.6 18.6 21.3 53.3 38.7 86.3 38.7s67.6-17.5 86.3-38.7c12.5-14.2 32.3-19.9 50.4-14.6 65.7 19.1 135.9 67.3 162.4 182 55.2 238.6-101.4 137.5-171.7 97.7z" style="fill:#3969e2"/></svg>
