<svg xmlns="http://www.w3.org/2000/svg" viewBox="0 0 180 180" style="enable-background:new 0 0 180 180" xml:space="preserve">
  <path d="M90 0C47.9 0 13.8 19.7 13.8 67.9S41.6 180 90 180s76.2-63.9 76.2-112.1S132.1 0 90 0zM72.8 93.2c-1.6 16.4-2.4 36.3-1.4 52.1.2 2.5-3.2 3.4-4.3 1.2-5.9-11.7-11.3-27.3-14.2-43.7-.5-2.7.9-5.4 3.3-6.6 4-2 7.9-4.3 10.9-6l.6-.3c2.4-1.5 5.4.5 5.1 3.3zm54.3 9.7c-2.9 16.4-8.3 32-14.2 43.7-1.1 2.2-4.5 1.3-4.3-1.2 1-15.9.1-35.7-1.4-52.1-.3-2.8 2.7-4.7 5.2-3.3l.6.3c3 1.7 6.8 4 10.9 6 2.4 1.2 3.7 3.9 3.2 6.6zm-14.2-24.5c-7.4-4.2-14.1-9.2-22.9-9.2s-15.5 5-22.9 9.2c-12.6 7.2-40.8 25.4-30.9-17.6C41 40.2 53.6 31.5 65.4 28c3.3-1 6.8.1 9.1 2.6 3.3 3.8 9.6 7 15.5 7s12.2-3.2 15.5-7c2.2-2.6 5.8-3.6 9.1-2.6 11.8 3.4 24.5 12.1 29.2 32.8 10 43-18.2 24.8-30.9 17.6z" style="fill:#3969E2"/>
</svg>
