<?xml version="1.0" encoding="utf-8"?>
<!-- Generator: Adobe Illustrator 26.3.1, SVG Export Plug-In . SVG Version: 6.00 Build 0)  -->
<svg version="1.1" id="Layer_1" xmlns="http://www.w3.org/2000/svg" xmlns:xlink="http://www.w3.org/1999/xlink" x="0px" y="0px"
	 viewBox="0 0 128 128" style="enable-background:new 0 0 128 128;" xml:space="preserve">
<path d="M64,0C28.7,0,0,28.7,0,64s28.7,64,64,64s64-28.7,64-64S99.3,0,64,0z M92,69.2H69.2v22.9c0,2.8-2.3,5.1-5.2,5.1
	s-5.2-2.3-5.2-5.1V69.2h-23c-2.8,0-5.1-2.3-5.1-5.2c0-2.8,2.3-5.1,5.1-5.1h23v-23c0-2.8,2.3-5.1,5.2-5.1s5.2,2.3,5.2,5.1v23H92
	c2.8,0,5.2,2.3,5.2,5.1C97.2,66.9,94.9,69.2,92,69.2z"/>
</svg>
