<svg viewBox="0 0 10 11" xmlns="http://www.w3.org/2000/svg"><path fill-rule="evenodd" clip-rule="evenodd" d="M8.01526 3.1543H9.7129V4.34893H8.45024C8.48045 4.54605 8.50462 4.74316 8.50462 4.94625V5.54356H9.7129V6.73819H8.50462V7.33551C8.50462 7.5386 8.48045 7.73571 8.45024 7.93283H9.7129V9.12746H8.01526C7.38695 10.1967 6.22096 10.9194 4.87977 10.9194C3.53857 10.9194 2.37258 10.1967 1.74427 9.12746H0.0466309V7.93283H1.30929C1.27908 7.73571 1.25491 7.5386 1.25491 7.33551V6.73819H0.0466309V5.54356H1.25491V4.94625C1.25491 4.74316 1.27908 4.54605 1.30929 4.34893H0.0466309V3.1543H1.74427C2.01613 2.6884 2.3907 2.28819 2.83777 1.98356L1.85906 1.00994L2.7109 0.167725L4.02793 1.4639C4.29979 1.39819 4.58374 1.36236 4.87977 1.36236C5.1758 1.36236 5.45974 1.39819 5.73765 1.4639L7.04864 0.167725L7.90048 1.00994L6.91572 1.98356C7.36883 2.28819 7.7434 2.6884 8.01526 3.1543ZM7.29383 7.33687V5.54493V4.94761C7.29383 4.8162 7.2757 4.66687 7.25154 4.53546L7.19112 4.14721L6.96155 3.75895C6.78031 3.44238 6.53261 3.17956 6.23054 2.97647L5.86201 2.7256L5.4512 2.63003C5.25787 2.58224 5.07059 2.55835 4.87726 2.55835C4.68998 2.55835 4.49665 2.58224 4.30937 2.63003L3.8623 2.73754L3.51794 2.9705C3.22191 3.17358 2.96817 3.44238 2.78693 3.75298L2.5634 4.14124L2.50298 4.52949C2.47882 4.6609 2.46069 4.81023 2.46069 4.94761V7.33687C2.46069 7.47426 2.47882 7.62358 2.50298 7.76097L2.5634 8.14922L2.78693 8.5315C3.22191 9.2662 4.01938 9.72614 4.87726 9.72614C5.73514 9.72614 6.53261 9.27217 6.96759 8.5315L7.19112 8.14325L7.25154 7.75499C7.2757 7.61761 7.29383 7.46828 7.29383 7.33687ZM3.67153 6.73801H6.08809V7.93264H3.67153V6.73801ZM6.0882 4.34741H3.67163V5.54204H6.0882V4.34741Z" /></svg>
