<?xml version="1.0" encoding="utf-8"?>
<!-- Generator: Adobe Illustrator 26.3.1, SVG Export Plug-In . SVG Version: 6.00 Build 0)  -->
<svg version="1.1" id="Layer_1" xmlns="http://www.w3.org/2000/svg" xmlns:xlink="http://www.w3.org/1999/xlink" x="0px" y="0px"
	 viewBox="0 0 128 128" style="enable-background:new 0 0 128 128;" xml:space="preserve">
<path d="M96.3,46.4c2.8,2.8,2.8,7.3,0,10L69,83.7l-10,10l-10-10L32.5,67.3c-2.8-2.8-2.8-7.3,0-10s7.3-2.8,10,0L59,73.6l27.3-27.3
	C89.1,43.6,93.6,43.6,96.3,46.4z M128,64c0,35.3-28.7,64-64,64S0,99.3,0,64S28.7,0,64,0S128,28.7,128,64z M117.7,64
	c0-29.6-24.1-53.7-53.7-53.7S10.3,34.4,10.3,64c0,29.6,24.1,53.7,53.7,53.7S117.7,93.6,117.7,64z"/>
</svg>
