<?xml version="1.0" encoding="utf-8"?>
<!-- Generator: Adobe Illustrator 26.3.1, SVG Export Plug-In . SVG Version: 6.00 Build 0)  -->
<svg version="1.1" id="Layer_1" xmlns="http://www.w3.org/2000/svg" xmlns:xlink="http://www.w3.org/1999/xlink" x="0px" y="0px"
	 viewBox="0 0 128 128" style="enable-background:new 0 0 128 128;" xml:space="preserve">
<path d="M120.1,36.6c-7.9-7.9-20-7.9-41.7-7.9s-33.8,0-41.7,7.9s-7.9,20-7.9,41.7s0,33.8,7.9,41.7c7.9,7.9,20,7.9,41.7,7.9
	s33.8,0,41.7-7.9c7.9-7.9,7.9-20,7.9-41.7S128,44.5,120.1,36.6z M111.4,111.4c-6.3,6.3-15.9,6.3-33.1,6.3c-17.2,0-26.8,0-33.1-6.3
	S39,95.6,39,78.4c0-17.2,0-26.8,6.3-33.1S61.1,39,78.4,39c17.2,0,26.8,0,33.1,6.3s6.3,15.9,6.3,33.1
	C117.7,95.6,117.7,105.2,111.4,111.4z"/>
<path d="M20.6,88.9c0-1.9-1-3.6-2.5-4.8c-0.6-0.4-1.1-0.9-1.6-1.4c-6.3-6.3-6.3-15.9-6.3-33.1c0-17.2,0-26.8,6.3-33.1
	s15.9-6.3,33.1-6.3c17.2,0,26.8,0,33.1,6.3c0.5,0.5,1,1,1.4,1.6c1.2,1.5,2.9,2.4,4.8,2.5l0.1,0c4.8,0,7.7-5.3,5.1-9.4
	c-0.8-1.2-1.7-2.3-2.7-3.3C83.5,0,71.4,0,49.6,0S15.8,0,7.9,7.9S0,27.9,0,49.6s0,33.8,7.9,41.7c1,1,2.1,1.9,3.3,2.7
	c4,2.6,9.4-0.2,9.4-5.1C20.6,89,20.6,89,20.6,88.9z"/>
</svg>
