<?xml version="1.0" encoding="utf-8"?>
<!-- Generator: Adobe Illustrator 26.3.1, SVG Export Plug-In . SVG Version: 6.00 Build 0)  -->
<svg version="1.1" id="Layer_1" xmlns="http://www.w3.org/2000/svg" xmlns:xlink="http://www.w3.org/1999/xlink" x="0px" y="0px"
	 viewBox="0 0 128 128" style="enable-background:new 0 0 128 128;" xml:space="preserve">
<path d="M119.4,57.3l-33-33.2c-2.2-2.4-5.4-3.6-8.6-3.6s-6.2,1.2-8.6,3.6l-4,4c-0.4,0.4-1,0.4-1.2,0.4s-0.8,0-1.2-0.6l-4-4
	c-2.4-2.2-5.4-3.4-8.6-3.4s-6.2,1.2-8.6,3.6l-33,33.2C3.2,62.7,0,70.1,0,78.1c0,16.2,13.2,29.4,29.4,29.4c11.4,0,21.4-6.6,26.2-16.2
	c2.4,1.6,5.2,2.4,8.4,2.4c3,0,6-0.8,8.4-2.4c4.8,9.6,14.8,16.2,26.2,16.2c16.2,0,29.4-13.2,29.4-29.4
	C128,70.1,124.8,62.7,119.4,57.3z M29.4,92.3c-7.8,0-14.2-6.4-14.2-14.2s6.4-14.2,14.2-14.2s14.2,6.4,14.2,14.2S37.2,92.3,29.4,92.3
	z M64,85.1c-3.8,0-7-3-7-7c0-3.8,3-7,7-7s7,3,7,7C71,81.9,67.8,85.1,64,85.1z M98.6,92.3c-7.8,0-14.2-6.4-14.2-14.2
	s6.4-14.2,14.2-14.2s14.2,6.4,14.2,14.2S106.4,92.3,98.6,92.3z"/>
</svg>
