<svg xmlns="http://www.w3.org/2000/svg" viewBox="0 0 300 300">
  <path fill="#ffffff" d="M150 13C85.9 13 34 43 34 116.4S76.3 287 150 287s116-97.3 116-170.6S214.1 13 150 13z"/>
  <path fill="#3969e2" d="M149.8.1C79.7.1 22.8 33 22.8 113.3S69.1 300 149.8 300s126.9-106.5 126.9-186.7S219.9.1 149.8.1zM131 157c-2.9 29.7-4.5 65.8-2.6 94.6.3 4.5-5.8 6.2-7.9 2.2-10.7-21.2-20.5-49.5-25.7-79.3-.9-4.9 1.6-9.8 6.1-12 7.3-3.6 14.3-7.8 19.7-10.8.4-.2.7-.4 1-.6 4.5-2.7 9.9.8 9.4 5.9zm74.3 17.4c-5.2 29.8-15 58.1-25.7 79.3-2 4.1-8.1 2.4-7.9-2.2 1.8-28.8.2-64.9-2.6-94.6-.5-5.1 4.9-8.6 9.4-6 .4.2.7.4 1 .6 5.4 3.1 12.4 7.2 19.7 10.8 4.5 2.3 7 7.2 6.1 12.1zM189 132.7c-12.7-7.2-24-15.8-39.2-15.8-15.2 0-26.5 8.6-39.2 15.8C89 145 40.7 176.1 57.7 102.6c8.2-35.3 29.8-50.2 50-56 5.6-1.6 11.7.1 15.5 4.5 5.7 6.6 16.4 11.9 26.6 11.9s20.8-5.4 26.6-11.9c3.9-4.4 10-6.1 15.5-4.5 20.2 5.9 41.8 20.7 50 56 17 73.5-31.3 42.4-52.9 30.1z"/>
</svg>
