<svg xmlns="http://www.w3.org/2000/svg" viewBox="0 0 608 608"><path d="M449.5 272.6c-8.5 0-15.5 2.9-21.2 8.8-5.7 5.9-8.5 13.7-8.5 23.5s2.8 17.7 8.5 23.5c5.7 5.9 12.8 8.8 21.2 8.8 8.5 0 15.5-2.9 21.2-8.8 5.7-5.9 8.5-13.7 8.5-23.5s-2.8-17.7-8.5-23.5c-5.6-5.8-12.7-8.8-21.2-8.8zM186.1 317.3c-3 1.5-5 3.2-6.1 5.3-1 2.1-1.6 4.4-1.6 7 0 3.3 1.5 6.3 4.4 8.9 2.9 2.7 6.6 4 11.1 4 7.8 0 14-2.3 18.8-6.9 4.7-4.6 7.1-10.5 7.1-17.7v-5.2c-8.8 0-15.9.4-21.2 1.2-5.3.8-9.4 1.9-12.5 3.4zM305 317.3c-3 1.5-5 3.2-6.1 5.3-1 2.1-1.6 4.4-1.6 7 0 3.3 1.5 6.3 4.4 8.9 2.9 2.7 6.6 4 11.1 4 7.8 0 14-2.3 18.8-6.9 4.7-4.6 7.1-10.5 7.1-17.7v-5.2c-8.8 0-15.9.4-21.2 1.2-5.3.8-9.4 1.9-12.5 3.4z"/><path d="M559.6 48.4C511.3 0 437.2 0 304 0S96.7 0 48.4 48.4C0 96.7 0 170.8 0 304s0 207.3 48.4 255.6C96.7 608 170.8 608 304 608s207.3 0 255.6-48.4C608 511.3 608 437.2 608 304s0-207.3-48.4-255.6zM127.5 360.7c-3.4 3.4-7.3 5-11.8 5-4.5 0-8.4-1.7-11.8-5-3.4-3.4-5-7.3-5-11.8 0-4.5 1.7-8.4 5-11.8s7.3-5 11.8-5c4.5 0 8.4 1.7 11.8 5s5 7.3 5 11.8c.1 4.5-1.6 8.5-5 11.8zm122.2 3.8h-22l-5.2-11.6c-2.8 2.4-5.8 4.6-9.1 6.5-2.9 1.7-6.5 3.2-10.6 4.5-4.1 1.3-8.8 1.9-14 1.9-12.9 0-22.9-3.1-29.8-9.4-6.9-6.3-10.4-14.4-10.4-24.2 0-5.9 1.2-11.3 3.5-16.2s6.3-9.1 11.8-12.7c5.5-3.5 12.8-6.3 21.9-8.3 9.1-2 20.4-3 34-3 0-6.6-1.8-11.6-5.3-15.3-3.5-3.6-8.2-5.4-14.1-5.4-4 0-7.1.7-9.4 2.1-2.3 1.4-4.2 2.8-5.6 4.4-1.6 1.9-2.6 4.1-3.1 6.5h-29.8c.7-5.5 2.3-10.7 4.8-15.5 2.5-4.8 5.9-9.1 10.2-12.7 4.3-3.6 9.4-6.5 15.4-8.7 6-2.2 12.6-3.2 20.1-3.2 6.7 0 12.9 1.2 18.6 3.5 5.7 2.3 10.6 5.6 14.7 9.7s7.4 9.1 9.7 14.7 3.5 11.9 3.5 18.6v73.8zm118.9 0h-22l-5.2-11.6c-2.8 2.4-5.8 4.6-9.1 6.5-2.9 1.7-6.5 3.2-10.6 4.5-4.1 1.3-8.8 1.9-14 1.9-12.9 0-22.9-3.1-29.8-9.4-6.9-6.3-10.4-14.4-10.4-24.2 0-5.9 1.2-11.3 3.5-16.2s6.3-9.1 11.8-12.7c5.5-3.5 12.8-6.3 21.9-8.3 9.1-2 20.4-3 34-3 0-6.6-1.8-11.6-5.3-15.3-3.5-3.6-8.2-5.4-14.1-5.4-4 0-7.1.7-9.4 2.1-2.3 1.4-4.2 2.8-5.6 4.4-1.6 1.9-2.6 4.1-3.1 6.5h-29.8c.7-5.5 2.3-10.7 4.8-15.5 2.5-4.8 5.9-9.1 10.2-12.7 4.3-3.6 9.4-6.5 15.4-8.7 6-2.2 12.6-3.2 20.1-3.2 6.7 0 12.9 1.2 18.6 3.5 5.7 2.3 10.6 5.6 14.7 9.7s7.4 9.1 9.7 14.7 3.5 11.9 3.5 18.6v73.8zm135.9-35.2c-3 7.4-7.1 13.8-12.2 19.3-5.1 5.4-11 9.7-17.7 12.7-6.7 3-13.8 4.5-21.2 4.5-5.2 0-9.8-.6-14-1.9-4.1-1.3-7.7-2.8-10.6-4.5-3.5-1.9-6.5-4.1-9.1-6.5l-5.2 11.6h-22v-163h29.8v54.3c2.4-2.1 5.2-4 8.3-5.7 2.8-1.4 6-2.7 9.7-4 3.7-1.3 8.1-1.9 13.1-1.9 7.4 0 14.5 1.5 21.2 4.5 6.7 3 12.6 7.2 17.7 12.7 5.1 5.4 9.1 11.9 12.2 19.3 3 7.4 4.5 15.5 4.5 24.3.1 8.8-1.5 16.9-4.5 24.3z"/></svg>
