<svg xmlns="http://www.w3.org/2000/svg" viewBox="0 0 608 608"><path d="M301.5 273.3c-8.3 0-15.3 2.9-20.9 8.6-5.6 5.8-8.4 13.5-8.4 23.1 0 9.7 2.8 17.4 8.4 23.1 5.6 5.8 12.5 8.6 20.9 8.6 8.3 0 15.3-2.9 20.9-8.6 5.6-5.8 8.4-13.5 8.4-23.1 0-9.7-2.8-17.4-8.4-23.1-5.7-5.7-12.6-8.6-20.9-8.6zM413.2 317.2c-3 1.4-5 3.2-6 5.2s-1.5 4.3-1.5 6.9c0 3.2 1.4 6.1 4.3 8.8 2.9 2.6 6.5 3.9 10.9 3.9 7.6 0 13.8-2.2 18.4-6.7 4.7-4.5 7-10.3 7-17.4v-5.1c-8.6 0-15.6.4-20.9 1.1-5.1.7-9.2 1.9-12.2 3.3z"/><path d="M559.6 48.4C511.3 0 437.2 0 304 0S96.7 0 48.4 48.4C0 96.7 0 170.8 0 304s0 207.3 48.4 255.6C96.7 608 170.8 608 304 608s207.3 0 255.6-48.4C608 511.3 608 437.2 608 304s0-207.3-48.4-255.6zM160.4 359.9c-3.3 3.3-7.2 5-11.6 5-4.4 0-8.3-1.7-11.6-5s-5-7.2-5-11.6c0-4.4 1.7-8.3 5-11.6s7.2-5 11.6-5c4.4 0 8.3 1.7 11.6 5s5 7.2 5 11.6c0 4.5-1.7 8.3-5 11.6zm57.1 3.7h-29.3v-117h29.3v117zm-2.4-137.2c-3.3 3.3-7.2 5-11.6 5-4.4 0-8.3-1.7-11.6-5s-5-7.2-5-11.6c0-4.4 1.7-8.3 5-11.6s7.2-5 11.6-5c4.4 0 8.3 1.7 11.6 5s5 7.2 5 11.6c0 4.4-1.7 8.3-5 11.6zM355.5 329c-3 7.3-7 13.6-12 19-5 5.3-10.8 9.5-17.4 12.5-6.6 3-13.6 4.5-20.9 4.5-4.9 0-9.2-.6-12.8-1.8-3.6-1.2-6.8-2.5-9.5-3.8-3.1-1.7-5.8-3.6-8.1-5.8v50.9h-29.3V246.6h21.6l5.1 11.4c2.5-2.4 5.5-4.5 8.9-6.4 2.9-1.5 6.4-3 10.4-4.3 4.1-1.4 8.6-2 13.7-2 7.3 0 14.2 1.5 20.9 4.5 6.6 3 12.4 7.1 17.4 12.5 5 5.3 9 11.7 12 18.9 3 7.3 4.5 15.3 4.5 23.9 0 8.7-1.5 16.6-4.5 23.9zm120.2 34.6h-21.6l-5.1-11.4c-2.7 2.4-5.7 4.5-8.9 6.4-2.9 1.7-6.4 3.2-10.4 4.5-4.1 1.3-8.6 1.9-13.7 1.9-12.7 0-22.5-3.1-29.2-9.3-6.8-6.2-10.2-14.1-10.2-23.8 0-5.8 1.1-11.1 3.4-15.9 2.3-4.8 6.1-9 11.6-12.5 5.4-3.5 12.6-6.2 21.5-8.1 8.9-1.9 20.1-2.9 33.4-2.9 0-6.4-1.7-11.4-5.2-15-3.5-3.6-8.1-5.3-13.9-5.3-3.9 0-7 .7-9.3 2-2.3 1.4-4.1 2.8-5.5 4.3-1.5 1.9-2.5 4-3.1 6.4h-29.3c.7-5.4 2.2-10.5 4.7-15.3 2.5-4.7 5.8-8.9 10-12.5 4.2-3.6 9.3-6.4 15.1-8.5 5.9-2.1 12.4-3.2 19.7-3.2 6.6 0 12.7 1.1 18.3 3.4 5.6 2.3 10.4 5.5 14.5 9.5s7.2 8.9 9.5 14.5 3.4 11.7 3.4 18.3v72.5z"/></svg>
