<svg class="header-logo-mark" xmlns="http://www.w3.org/2000/svg" width="933.333" height="933.333" viewBox="0 0 700 700"><path d="M335.5 10c-39.2 33-81.9 74.8-113.6 111-4.5 5.2-8.5 9.7-8.8 10-.4.3-4.1 4.7-8.4 9.8l-7.8 9.4 4.3 4.6c6 6.5 16.4 20 23.5 30.7 34.8 51.9 62 119.5 82.9 205.5 1 4.3 7.5 32.8 7.8 34.5.2 1.1.7 3.1 1 4.5.3 1.4.8 3.7 1.1 5.2.3 1.6.7 4 1 5.5.8 3.7 4.6 24.3 5 26.8 1.3 7.2 3.5 20.6 4 24 .4 2.2.8 4.7 1 5.5.2.8.7 3.7 1 6.5.4 2.7.8 5.7 1 6.5.2.8.7 4 1 7 .3 3 .8 6.6 1 8 .2 1.4.7 4.5 1 7 .3 2.5 1 7.6 1.5 11.5 1 7.3 1.7 13.9 2.5 21.5.2 2.5.7 6.7 1 9.5.5 5.1 1.2 11.6 2 19.5.3 2.5.7 6.5.9 9 .3 2.5.8 8.5 1.1 13.5.3 4.9.8 11.2 1 14 1.2 14.8 2.2 32.6 3 53 .6 13.4 1.3 16.5 4 16.5s3.3-3.1 4-19.5c1-25.5 2.3-46.6 4-65 .3-2.8.7-8.2 1-12 .5-7.6 1.3-16 2-21.5.2-1.9.7-6.2 1-9.5.8-8.1 1.5-14.3 2-18.5.3-1.9.7-5.8 1-8.5.3-2.8.8-6.1 1-7.5.2-1.4.6-4.5 1-7 .5-4.5 1.3-10.3 2-15 .2-1.4 1.1-7.5 2-13.5.9-6.1 2.2-14.6 3-19 .8-4.4 1.7-10 2-12.5.4-2.4.8-4.7 1-5 .2-.3.6-2.3.9-4.5.4-2.2 1.6-9 2.7-15 1.2-6.1 2.3-11.9 2.5-13 .4-2.3 1.2-6.1 1.9-9 1.2-5.3 3.5-15.5 3.9-17.6 1.1-6.1 9.2-37.7 13.7-53.7 7.8-27.4 22.3-70.2 25.9-76.4.5-1 1-2.2 1-2.8 0-.5 1.1-3.3 2.4-6.2 1.3-2.9 3.6-8.2 5.1-11.8 14.7-34.3 38.3-73.4 58.8-97.3l7.6-8.8-2.3-2.7c-1.3-1.5-5.6-6.5-9.6-11.2-8.4-9.8-17.6-20.1-27.5-30.9C454.3 94 414 54 402.5 43.5c-5.4-5-10.3-9.5-10.9-10-2.4-2.2-26.4-23.3-31.8-27.8-9.2-7.8-10.1-7.6-24.3 4.3z"/><path  d="M165.7 189.6c-24.7 33.2-43.2 60.6-61.2 90.4-8.6 14.1-18.9 32-24 41.5-2.7 4.9-5.7 10.6-6.8 12.5-10.5 18.9-31.6 63.8-43.7 93-12.1 29.2-26.5 69-25 69 .8 0 18.7-5.1 33.5-9.5 4.4-1.3 14.8-4.4 23-6.8 8.3-2.4 18.4-5.4 22.5-6.6 4.1-1.3 14.9-4.4 24-7.1 9.1-2.7 23.5-6.9 32-9.4 8.5-2.6 20.9-6.2 27.5-8.1 6.6-1.9 13.4-3.9 15-4.5 1.7-.5 11.6-3.4 22-6.5 20.6-6 24.1-7.1 47.5-14.1 8.5-2.5 17.1-5.1 19.1-5.6 3.6-1 3.6-1.1 2.8-4.6-.4-2.1-1.1-5.3-1.4-7.2-.3-1.9-1.1-5.5-1.6-8-.6-2.5-1.3-5.6-1.5-7-1.7-8.8-9.5-37.1-14.1-51-3.4-10.4-9.2-27.1-10.3-29.5-.4-1.1-3.9-9.2-7.6-18-8.8-21-22.5-48.5-30.1-60.7-1.3-2.1-2.3-3.9-2.3-4.1 0-1.5-30.5-48.9-31.3-48.7-.1.1-3.7 4.8-8 10.6zM517.8 191.7c-32.4 48.8-54.7 94.5-72.4 147.9-8.7 26.4-20.1 71.6-19.2 76.1.2 1.1 3.9 2.6 12.3 5 6.6 1.9 14 4.1 16.5 4.8 2.5.8 8.3 2.5 13 3.8 4.7 1.4 16.8 5 27 8s19.4 5.7 20.5 6c1.1.3 8.8 2.5 17 5 8.3 2.5 20.4 6.1 27 8.1 6.6 1.9 30.5 8.9 53 15.6 22.6 6.7 42.4 12.5 44 13 5.8 1.5 34.5 10 37 11 1.4.5 2.5.8 2.5.7 0-2.5-22.1-61.2-27.5-73.2-.8-1.7-2.6-5.9-4-9.5-10.5-25.5-43.8-92.8-52.5-106-.6-.8-1.3-2.2-1.7-3-.4-.8-2.2-3.8-4-6.7-1.8-2.9-3.3-5.4-3.3-5.7 0-.8-15-25.1-25.1-40.6-12.7-19.6-25.1-37.3-39.2-56.3l-12.4-16.8-8.5 12.8z"/></svg>
