<?xml version="1.0" encoding="utf-8"?>
<!-- Generator: Adobe Illustrator 26.3.1, SVG Export Plug-In . SVG Version: 6.00 Build 0)  -->
<svg version="1.1" id="Layer_1" xmlns="http://www.w3.org/2000/svg" xmlns:xlink="http://www.w3.org/1999/xlink" x="0px" y="0px"
	 viewBox="0 0 128 128" style="enable-background:new 0 0 128 128;" xml:space="preserve">
<path d="M117.8,10.2C107.6,0,92,0,64,0S20.4,0,10.2,10.2S0,36,0,64s0,43.6,10.2,53.8S36,128,64,128s43.6,0,53.8-10.2S128,92,128,64
	S128,20.4,117.8,10.2z M64,32.9c3.6,0,6.5,3,6.4,6.6L69.6,70c-0.1,3-2.6,5.4-5.6,5.4c-3,0-5.5-2.4-5.6-5.4l-0.9-30.5
	C57.5,35.9,60.4,32.9,64,32.9z M64,95.1c-3.9,0-7.1-3.2-7.1-7.1c0-3.9,3.2-7.1,7.1-7.1s7.1,3.2,7.1,7.1C71.1,91.9,67.9,95.1,64,95.1
	z"/>
</svg>
