<?xml version="1.0" encoding="utf-8"?>
<!-- Generator: Adobe Illustrator 26.3.1, SVG Export Plug-In . SVG Version: 6.00 Build 0)  -->
<svg version="1.1" id="Layer_1" xmlns="http://www.w3.org/2000/svg" xmlns:xlink="http://www.w3.org/1999/xlink" x="0px" y="0px"
	 viewBox="0 0 128 128" style="enable-background:new 0 0 128 128;" xml:space="preserve">
<path d="M0,64c0,35.3,28.7,64,64,64s64-28.7,64-64S99.3,0,64,0S0,28.7,0,64z M69.2,35.9v43.8L80.9,68c2.1-2.1,5.4-2,7.4,0.1
	c1.9,2,1.8,5.3-0.2,7.3L67.9,95.6c-2.2,2.2-5.6,2.2-7.8,0L39.9,75.3c-2.1-2.1-2-5.4,0.1-7.4c2-1.9,5.3-1.8,7.3,0.2l11.6,11.6V36.2
	c0-2.8,2.2-5.3,5-5.4C66.8,30.7,69.2,33,69.2,35.9z"/>
</svg>
