<?xml version="1.0" encoding="utf-8"?>
<!-- Generator: Adobe Illustrator 26.3.1, SVG Export Plug-In . SVG Version: 6.00 Build 0)  -->
<svg version="1.1" id="Layer_1" xmlns="http://www.w3.org/2000/svg" xmlns:xlink="http://www.w3.org/1999/xlink" x="0px" y="0px"
	 viewBox="0 0 128 128" style="enable-background:new 0 0 128 128;" xml:space="preserve">
<path d="M128,64c0-35.3-28.7-64-64-64S0,28.7,0,64s28.7,64,64,64S128,99.3,128,64z M58.8,92.1V48.3L47.1,60c-2.1,2.1-5.4,2-7.4-0.1
	c-1.9-2-1.8-5.3,0.2-7.3l20.1-20.1c2.2-2.2,5.6-2.2,7.8,0l20.2,20.3c2.1,2.1,2,5.4-0.1,7.4c-2,1.9-5.3,1.8-7.3-0.2L69.1,48.3v43.5
	c0,2.8-2.2,5.3-5,5.4C61.2,97.3,58.8,95,58.8,92.1z"/>
</svg>
