<?xml version="1.0" encoding="utf-8"?>
<!-- Generator: Adobe Illustrator 26.3.1, SVG Export Plug-In . SVG Version: 6.00 Build 0)  -->
<svg version="1.1" id="Layer_1" xmlns="http://www.w3.org/2000/svg" xmlns:xlink="http://www.w3.org/1999/xlink" x="0px" y="0px"
	 viewBox="0 0 128 128" style="enable-background:new 0 0 128 128;" xml:space="preserve">
<path d="M64,0C28.7,0,0,28.7,0,64s28.7,64,64,64s64-28.7,64-64S99.3,0,64,0z M92.1,69.2H48.3L60,80.9c2.1,2.1,2,5.4-0.1,7.4
	c-2,1.9-5.3,1.8-7.3-0.2L32.4,67.9c-2.2-2.2-2.2-5.6,0-7.8l20.3-20.2c2.1-2.1,5.4-2,7.4,0.1c1.9,2,1.8,5.3-0.2,7.3L48.3,58.9h43.5
	c2.8,0,5.3,2.2,5.4,5C97.3,66.8,95,69.2,92.1,69.2z"/>
</svg>
