<?xml version="1.0" encoding="utf-8"?>
<!-- Generator: Adobe Illustrator 26.3.1, SVG Export Plug-In . SVG Version: 6.00 Build 0)  -->
<svg version="1.1" id="Layer_1" xmlns="http://www.w3.org/2000/svg" xmlns:xlink="http://www.w3.org/1999/xlink" x="0px" y="0px"
	 viewBox="0 0 128 128" style="enable-background:new 0 0 128 128;" xml:space="preserve">
<path d="M108.9,75.5h7.3c3.7,0,6.7-3,6.7-6.7c0-3.7-3-6.7-6.7-6.7h-7.3v-7.6c0-2-0.1-4-0.4-5.9h7.7c3.7,0,6.7-3,6.7-6.7
	c0-3.7-3-6.7-6.7-6.7h-11.7c-3.5-7.4-9-13.7-15.8-18.2l5.7-5.7C97,8.8,97,4.6,94.4,2c-2.6-2.6-6.8-2.6-9.4,0l-9.2,9.2
	c-3.8-1-7.7-1.6-11.8-1.6h0c-4.1,0-8,0.6-11.8,1.6L43,2c-2.6-2.6-6.8-2.6-9.4,0c-2.6,2.6-2.6,6.8,0,9.4l5.7,5.7
	c-6.8,4.5-12.3,10.8-15.8,18.2H11.8c-3.7,0-6.7,3-6.7,6.7c0,3.7,3,6.7,6.7,6.7h7.7c-0.3,1.9-0.4,3.9-0.4,5.9v7.6h-7.3
	c-3.7,0-6.7,3-6.7,6.7c0,3.7,3,6.7,6.7,6.7h7.3v7.6c0,2,0.1,4,0.4,5.9h-7.7c-3.7,0-6.7,3-6.7,6.7c0,3.7,3,6.7,6.7,6.7h11.7
	C30.6,117.5,46.1,128,64,128h0c17.9,0,33.4-10.5,40.6-25.7h11.7c3.7,0,6.7-3,6.7-6.7c0-3.7-3-6.7-6.7-6.7h-7.7
	c0.3-1.9,0.4-3.9,0.4-5.9V75.5z M76,91.5H52c-3.7,0-6.7-3-6.7-6.7s3-6.7,6.7-6.7H76c3.7,0,6.7,3,6.7,6.7S79.6,91.5,76,91.5z
	 M76,59.4H52c-3.7,0-6.7-3-6.7-6.7c0-3.7,3-6.7,6.7-6.7H76c3.7,0,6.7,3,6.7,6.7C82.6,56.5,79.6,59.4,76,59.4z"/>
</svg>
