<?xml version="1.0" encoding="utf-8"?>
<!-- Generator: Adobe Illustrator 27.0.0, SVG Export Plug-In . SVG Version: 6.00 Build 0)  -->
<svg version="1.1" id="Layer_1" xmlns="http://www.w3.org/2000/svg" xmlns:xlink="http://www.w3.org/1999/xlink" x="0px" y="0px"
	 viewBox="0 0 128 128" style="enable-background:new 0 0 128 128;" xml:space="preserve">
<path d="M109.3,18.7c-25-25-65.5-25-90.5,0s-25,65.5,0,90.5s65.5,25,90.5,0S134.2,43.7,109.3,18.7z M87.4,80.2c2,2,2.1,5.3,0.1,7.3
	c-2.1,2.1-5.3,2.1-7.4,0L64,71.4L47.8,87.5c-2,2-5.2,2-7.3-0.1s-2.1-5.3-0.1-7.3L56.6,64L40.4,47.7c-2-2-2-5.2,0.1-7.3
	c2-2,5.2-2,7.2,0l16.3,16.3l16.3-16.3c2-2,5.2-2,7.3,0.1s2.1,5.3,0.1,7.3L71.3,64.1L87.4,80.2z"/>
</svg>
