<?xml version="1.0" encoding="utf-8"?>
<!-- Generator: Adobe Illustrator 26.3.1, SVG Export Plug-In . SVG Version: 6.00 Build 0)  -->
<svg version="1.1" id="Layer_1" xmlns="http://www.w3.org/2000/svg" xmlns:xlink="http://www.w3.org/1999/xlink" x="0px" y="0px"
	 viewBox="0 0 128 128" style="enable-background:new 0 0 128 128;" xml:space="preserve">
<path d="M120.1,36.6c-7.9-7.9-20-7.9-41.7-7.9s-33.8,0-41.7,7.9s-7.9,20-7.9,41.7s0,33.8,7.9,41.7s20,7.9,41.7,7.9s33.8,0,41.7-7.9
	s7.9-20,7.9-41.7S128,44.5,120.1,36.6z"/>
<path d="M20.6,78.4c0-25.3,0-39.4,9.2-48.6c9.2-9.2,23.3-9.2,48.6-9.2c7.4,0,13.8,0,19.5,0.2c-1.1-5.4-3-9.5-6.4-12.9
	C83.5,0,71.4,0,49.6,0S15.8,0,7.9,7.9C0,15.8,0,27.9,0,49.6s0,33.8,7.9,41.7c3.4,3.4,7.6,5.3,12.9,6.4
	C20.6,92.2,20.6,85.7,20.6,78.4z"/>
</svg>
