<?xml version="1.0" encoding="utf-8"?>
<!-- Generator: Adobe Illustrator 26.3.1, SVG Export Plug-In . SVG Version: 6.00 Build 0)  -->
<svg version="1.1" id="Layer_1" xmlns="http://www.w3.org/2000/svg" xmlns:xlink="http://www.w3.org/1999/xlink" x="0px" y="0px"
	 viewBox="0 0 128 128" style="enable-background:new 0 0 128 128;" xml:space="preserve">
<path d="M94.6,57.4c-1.8,0-3.3,0.6-4.5,1.9s-1.8,2.9-1.8,4.9c0,2.1,0.6,3.7,1.8,4.9c1.2,1.2,2.7,1.9,4.5,1.9c1.8,0,3.3-0.6,4.5-1.9
	c1.2-1.2,1.8-2.9,1.8-4.9c0-2.1-0.6-3.7-1.8-4.9C97.9,58,96.4,57.4,94.6,57.4z M39.2,66.8c-0.6,0.3-1.1,0.7-1.3,1.1
	c-0.2,0.4-0.3,0.9-0.3,1.5c0,0.7,0.3,1.3,0.9,1.9c0.6,0.6,1.4,0.8,2.3,0.8c1.6,0,2.9-0.5,4-1.5c1-1,1.5-2.2,1.5-3.7v-1.1
	c-1.9,0-3.3,0.1-4.5,0.3C40.7,66.3,39.8,66.5,39.2,66.8L39.2,66.8z M64.2,66.8c-0.6,0.3-1.1,0.7-1.3,1.1c-0.2,0.4-0.3,0.9-0.3,1.5
	c0,0.7,0.3,1.3,0.9,1.9c0.6,0.6,1.4,0.8,2.3,0.8c1.6,0,2.9-0.5,4-1.5c1-1,1.5-2.2,1.5-3.7v-1.1c-1.9,0-3.3,0.1-4.5,0.3
	C65.7,66.3,64.9,66.5,64.2,66.8L64.2,66.8z M117.8,10.2C107.6,0,92,0,64,0S20.4,0,10.2,10.2C0,20.4,0,36,0,64s0,43.6,10.2,53.8
	C20.4,128,36,128,64,128s43.6,0,53.8-10.2C128,107.6,128,92,128,64S128,20.4,117.8,10.2z M26.8,75.9c-0.7,0.7-1.5,1.1-2.5,1.1
	c-0.9,0-1.8-0.4-2.5-1.1c-0.7-0.7-1.1-1.5-1.1-2.5s0.4-1.8,1.1-2.5c0.7-0.7,1.5-1.1,2.5-1.1c0.9,0,1.8,0.4,2.5,1.1
	c0.7,0.7,1.1,1.5,1.1,2.5C27.9,74.4,27.6,75.2,26.8,75.9z M52.6,76.7h-4.6l-1.1-2.4c-0.6,0.5-1.2,1-1.9,1.4
	c-0.6,0.4-1.4,0.7-2.2,0.9S40.8,77,39.7,77c-2.7,0-4.8-0.7-6.3-2c-1.5-1.3-2.2-3-2.2-5.1c0-1.2,0.3-2.4,0.7-3.4
	c0.5-1,1.3-1.9,2.5-2.7c1.2-0.7,2.7-1.3,4.6-1.7c1.9-0.4,4.3-0.6,7.2-0.6c0-1.4-0.4-2.4-1.1-3.2c-0.7-0.8-1.7-1.1-3-1.1
	c-0.8,0-1.5,0.1-2,0.4c-0.5,0.3-0.9,0.6-1.2,0.9c-0.3,0.4-0.5,0.9-0.7,1.4h-6.3c0.1-1.2,0.5-2.3,1-3.3c0.5-1,1.2-1.9,2.1-2.7
	c0.9-0.8,2-1.4,3.2-1.8c1.3-0.5,2.7-0.7,4.2-0.7c1.4,0,2.7,0.3,3.9,0.7s2.2,1.2,3.1,2c0.9,0.9,1.6,1.9,2,3.1
	c0.5,1.2,0.7,2.5,0.7,3.9L52.6,76.7L52.6,76.7z M77.6,76.7H73l-1.1-2.4c-0.6,0.5-1.2,1-1.9,1.4c-0.6,0.4-1.4,0.7-2.2,0.9
	S65.9,77,64.8,77c-2.7,0-4.8-0.7-6.3-2c-1.5-1.3-2.2-3-2.2-5.1c0-1.2,0.3-2.4,0.7-3.4c0.5-1,1.3-1.9,2.5-2.7
	c1.2-0.7,2.7-1.3,4.6-1.7c1.9-0.4,4.3-0.6,7.2-0.6c0-1.4-0.4-2.4-1.1-3.2c-0.7-0.8-1.7-1.1-3-1.1c-0.8,0-1.5,0.1-2,0.4
	c-0.5,0.3-0.9,0.6-1.2,0.9c-0.3,0.4-0.5,0.9-0.7,1.4h-6.3c0.1-1.2,0.5-2.3,1-3.3c0.5-1,1.2-1.9,2.1-2.7c0.9-0.8,2-1.4,3.2-1.8
	s2.7-0.7,4.2-0.7c1.4,0,2.7,0.3,3.9,0.7s2.2,1.2,3.1,2s1.6,1.9,2,3.1c0.5,1.2,0.7,2.5,0.7,3.9L77.6,76.7L77.6,76.7z M106.2,69.3
	c-0.6,1.6-1.5,2.9-2.6,4.1c-1.1,1.1-2.3,2-3.7,2.7S97,77,95.5,77c-1.1,0-2.1-0.1-2.9-0.4c-0.9-0.3-1.6-0.6-2.2-0.9
	c-0.7-0.4-1.4-0.9-1.9-1.4l-1.1,2.4h-4.6V42.4h6.3v11.4c0.5-0.4,1.1-0.8,1.7-1.2c0.6-0.3,1.3-0.6,2-0.8c0.8-0.3,1.7-0.4,2.8-0.4
	c1.6,0,3.1,0.3,4.5,0.9c1.4,0.6,2.7,1.5,3.7,2.7c1.1,1.1,1.9,2.5,2.6,4.1c0.6,1.6,0.9,3.3,0.9,5.1C107.2,66.1,106.8,67.8,106.2,69.3
	L106.2,69.3z"/>
</svg>
