<?xml version="1.0" encoding="utf-8"?>
<!-- Generator: Adobe Illustrator 26.3.1, SVG Export Plug-In . SVG Version: 6.00 Build 0)  -->
<svg version="1.1" id="Layer_1" xmlns="http://www.w3.org/2000/svg" xmlns:xlink="http://www.w3.org/1999/xlink" x="0px" y="0px"
	 viewBox="0 0 128 128" style="enable-background:new 0 0 128 128;" xml:space="preserve">
<path d="M38.7,66.8c-0.6,0.3-1.1,0.7-1.3,1.1c-0.2,0.4-0.3,0.9-0.3,1.5c0,0.7,0.3,1.3,0.9,1.9c0.6,0.5,1.4,0.8,2.3,0.8
	c1.6,0,2.9-0.5,3.9-1.4c1-0.9,1.5-2.2,1.5-3.7v-1.1c-1.8,0-3.3,0.1-4.4,0.2C40.1,66.3,39.3,66.5,38.7,66.8z M69.2,57.6
	c-1.7,0-3.2,0.6-4.4,1.8c-1.2,1.2-1.8,2.8-1.8,4.9c0,2,0.6,3.7,1.8,4.9c1.2,1.2,2.7,1.8,4.4,1.8c1.7,0,3.2-0.6,4.4-1.8
	c1.2-1.2,1.8-2.8,1.8-4.9c0-2-0.6-3.7-1.8-4.9C72.4,58.2,71,57.6,69.2,57.6z M117.8,10.2C107.6,0,92,0,64,0S20.4,0,10.2,10.2
	C0,20.4,0,36,0,64s0,43.6,10.2,53.8C20.4,128,36,128,64,128s43.6,0,53.8-10.2C128,107.6,128,92,128,64S128,20.4,117.8,10.2z
	 M26.1,75.8c-0.7,0.7-1.5,1.1-2.4,1.1c-0.9,0-1.7-0.4-2.4-1.1c-0.7-0.7-1.1-1.5-1.1-2.4s0.4-1.7,1.1-2.4c0.7-0.7,1.5-1.1,2.4-1.1
	c0.9,0,1.7,0.4,2.4,1.1s1.1,1.5,1.1,2.4S26.8,75.1,26.1,75.8z M51.8,76.6h-4.5l-1.1-2.4c-0.6,0.5-1.2,0.9-1.9,1.3
	c-0.6,0.4-1.3,0.7-2.2,0.9c-0.9,0.3-1.8,0.4-2.9,0.4c-2.7,0-4.7-0.7-6.2-2c-1.4-1.3-2.1-3-2.1-5c0-1.2,0.2-2.3,0.7-3.3
	c0.5-1,1.3-1.9,2.4-2.6c1.1-0.7,2.7-1.3,4.5-1.7c1.9-0.4,4.2-0.6,7.1-0.6c0-1.3-0.4-2.4-1.1-3.2c-0.7-0.8-1.7-1.1-2.9-1.1
	c-0.8,0-1.5,0.1-2,0.4c-0.5,0.3-0.9,0.6-1.2,0.9c-0.3,0.4-0.5,0.8-0.7,1.3h-6.2c0.1-1.1,0.5-2.2,1-3.2c0.5-1,1.2-1.9,2.1-2.6
	c0.9-0.8,2-1.3,3.2-1.8c1.2-0.4,2.6-0.7,4.1-0.7c1.4,0,2.7,0.2,3.9,0.7c1.2,0.5,2.2,1.2,3.1,2c0.9,0.9,1.5,1.9,2,3.1
	c0.5,1.2,0.7,2.5,0.7,3.9L51.8,76.6L51.8,76.6z M80.6,69.3c-0.6,1.5-1.5,2.9-2.5,4c-1.1,1.1-2.3,2-3.7,2.6s-2.9,0.9-4.4,0.9
	c-1,0-1.9-0.1-2.7-0.4c-0.8-0.3-1.4-0.5-2-0.8c-0.7-0.4-1.2-0.8-1.7-1.2v10.7h-6.2V52H62l1.1,2.4c0.5-0.5,1.2-0.9,1.9-1.3
	c0.6-0.3,1.3-0.6,2.2-0.9c0.9-0.3,1.8-0.4,2.9-0.4c1.5,0,3,0.3,4.4,0.9c1.4,0.6,2.6,1.5,3.7,2.6c1.1,1.1,1.9,2.5,2.5,4
	c0.6,1.5,0.9,3.2,0.9,5C81.5,66.1,81.2,67.8,80.6,69.3L80.6,69.3z M100.8,76.6l-8.6-11.2v11.2h-6.1V42.8h6.2v19.3L99.8,52h7
	l-8.8,11.8l9.9,12.9L100.8,76.6L100.8,76.6z"/>
</svg>
