<?xml version="1.0" encoding="utf-8"?>
<!-- Generator: Adobe Illustrator 26.3.1, SVG Export Plug-In . SVG Version: 6.00 Build 0)  -->
<svg version="1.1" id="Layer_1" xmlns="http://www.w3.org/2000/svg" xmlns:xlink="http://www.w3.org/1999/xlink" x="0px" y="0px"
	 viewBox="0 0 128 128" style="enable-background:new 0 0 128 128;" xml:space="preserve">
<path d="M86.5,57.4c-1.8,0-3.3,0.6-4.5,1.9c-1.2,1.2-1.8,2.9-1.8,4.9c0,2.1,0.6,3.7,1.8,4.9c1.2,1.2,2.7,1.9,4.5,1.9
	c1.8,0,3.3-0.6,4.5-1.9s1.8-2.9,1.8-4.9c0-2.1-0.6-3.7-1.8-4.9S88.3,57.4,86.5,57.4z M117.8,10.2C107.6,0,92,0,64,0
	S20.4,0,10.2,10.2C0,20.4,0,36,0,64s0,43.6,10.2,53.8C20.4,128,36,128,64,128s43.6,0,53.8-10.2C128,107.6,128,92,128,64
	S128,20.4,117.8,10.2z M34.9,75.9c-0.7,0.7-1.5,1.1-2.5,1.1s-1.8-0.4-2.5-1.1c-0.7-0.7-1.1-1.5-1.1-2.5s0.4-1.8,1.1-2.5
	c0.7-0.7,1.5-1.1,2.5-1.1s1.8,0.4,2.5,1.1s1.1,1.5,1.1,2.5S35.7,75.2,34.9,75.9z M59.1,76.7H39.7v-5.2l10.9-13.9H39.7v-6h18.8v5.2
	L47.6,70.7h11.4V76.7z M69.3,76.7H63V51.7h6.3V76.7z M68.8,47.3c-0.7,0.7-1.5,1.1-2.5,1.1c-0.9,0-1.8-0.4-2.5-1.1
	c-0.7-0.7-1.1-1.5-1.1-2.5s0.4-1.8,1.1-2.5c0.7-0.7,1.5-1.1,2.5-1.1c0.9,0,1.8,0.4,2.5,1.1c0.7,0.7,1.1,1.5,1.1,2.5
	C69.9,45.8,69.5,46.6,68.8,47.3z M98.1,69.3c-0.6,1.6-1.5,2.9-2.6,4.1c-1.1,1.1-2.3,2-3.7,2.7S88.9,77,87.4,77c-1.1,0-2-0.1-2.8-0.4
	c-0.8-0.3-1.5-0.5-2-0.8c-0.7-0.4-1.2-0.8-1.7-1.3v10.9h-6.3V51.7h4.6l1.1,2.4c0.5-0.5,1.2-1,1.9-1.4c0.6-0.3,1.4-0.6,2.2-0.9
	s1.9-0.4,2.9-0.4c1.6,0,3.1,0.3,4.5,0.9c1.4,0.6,2.7,1.5,3.7,2.7c1.1,1.1,1.9,2.5,2.6,4.1c0.6,1.6,0.9,3.3,0.9,5.1
	C99.1,66.1,98.8,67.8,98.1,69.3L98.1,69.3z"/>
</svg>
