<?xml version="1.0" encoding="utf-8"?>
<!-- Generator: Adobe Illustrator 27.5.0, SVG Export Plug-In . SVG Version: 6.00 Build 0)  -->
<svg version="1.1" id="Layer_1" xmlns="http://www.w3.org/2000/svg" xmlns:xlink="http://www.w3.org/1999/xlink" x="0px" y="0px"
	 viewBox="0 0 128 128" style="enable-background:new 0 0 128 128;" xml:space="preserve">
<g>
	<path d="M28.2,69.3c0,1.3,1.3,2.7,3.2,2.7c3.2,0,5.4-2.1,5.4-5.1v-1.1C29.5,65.8,28.2,67.2,28.2,69.3z"/>
	<path d="M117.8,10.2C107.6,0,92,0,64,0S20.4,0,10.2,10.2S0,36,0,64s0,43.6,10.2,53.8S36,128,64,128s43.6,0,53.8-10.2S128,92,128,64
		S128,20.4,117.8,10.2z M14.9,76.8c-1.9,0-3.5-1.6-3.5-3.5s1.6-3.5,3.5-3.5c1.9,0,3.5,1.6,3.5,3.5S16.8,76.8,14.9,76.8z M42.9,76.5
		h-4.6l-1.1-2.4c-0.6,0.5-1.2,1-1.9,1.3c-1.2,0.7-2.9,1.3-5.1,1.3c-5.4,0-8.3-2.9-8.3-7c0-4.9,3.5-8.3,14.7-8.3c0-2.7-1.6-4.3-4-4.3
		c-1.7,0-2.5,0.7-3.1,1.3c-0.3,0.4-0.5,0.9-0.6,1.3h-6.2c0.6-4.5,4.3-8.3,10.4-8.3c5.6,0,9.6,4.1,9.6,9.6V76.5z M60.8,76.8
		c-2.1,0-3.6-0.6-4.7-1.2c-0.6-0.4-1.2-0.7-1.7-1.2v10.7h-6.2V51.9h4.6l1.1,2.4c0.5-0.5,1.2-1,1.9-1.3c1.2-0.6,2.9-1.3,5.1-1.3
		c6.2,0,11.5,5.3,11.5,12.6C72.3,71.5,66.9,76.8,60.8,76.8z M91.2,76.5l-8.6-11.2v11.2h-6.2V42.8h6.2v19.3l7.5-10.2h7l-8.8,11.8
		l9.9,12.9H91.2z M108.3,76.8c-6.4,0-9.7-3.2-10.2-8h5.9c0.3,1.7,1.6,2.9,3.7,2.9s3.5-1.3,3.5-2.7c0-3.5-12.6-1.4-12.6-9.9
		c0-4,3.5-7.5,8.8-7.5c5.9,0,9,3.2,9.6,7.5h-5.9c-0.3-1.1-1.6-2.4-3.5-2.4c-1.9,0-2.9,1.1-2.9,2.4c0,3.4,12.6,1.4,12.6,10.2
		C117.4,73.3,113.8,76.8,108.3,76.8z"/>
	<path d="M60,57.5c-3.5,0-6.2,2.6-6.2,6.7c0,4.1,2.7,6.7,6.2,6.7c3.5,0,6.2-2.6,6.2-6.7C66.1,60.1,63.5,57.5,60,57.5z"/>
</g>
</svg>
