<?xml version="1.0" encoding="utf-8"?>
<!-- Generator: Adobe Illustrator 26.3.1, SVG Export Plug-In . SVG Version: 6.00 Build 0)  -->
<svg version="1.1" id="Layer_1" xmlns="http://www.w3.org/2000/svg" xmlns:xlink="http://www.w3.org/1999/xlink" x="0px" y="0px"
	 viewBox="0 0 128 128" style="enable-background:new 0 0 128 128;" xml:space="preserve">
<path d="M113.5,10.3c2.3,0,4.2,1.9,4.2,4.2c0,1.1-0.5,2.2-1.3,3l-39,38c-2,1.9-3.1,4.6-3.1,7.4v53.3l-20.6-10V62.9
	c0-2.8-1.1-5.4-3.1-7.4l-39-38c-0.8-0.8-1.3-1.9-1.3-3c0-2.3,1.9-4.2,4.2-4.2H113.5 M113.5,0h-99C6.5,0,0,6.5,0,14.5
	c0,3.9,1.6,7.7,4.4,10.4l39,38v44.9c0,2.9,1.7,5.6,4.3,6.9l25.8,12.5c1.1,0.5,2.2,0.8,3.4,0.8c4,0,7.7-3.2,7.7-7.7V62.9l39-38
	c2.8-2.7,4.4-6.5,4.4-10.4C128,6.5,121.5,0,113.5,0L113.5,0z"/>
</svg>
