<svg xmlns="http://www.w3.org/2000/svg" viewBox="0 0 512 512"><path d="M256 448a32 32 0 0 1-18-5.57c-78.59-53.35-112.62-89.93-131.39-112.8C66.44 281 47.05 232.16 47.05 184c0-44.54 22.6-83.45 60.45-104C133.5 67 162.18 64 188 64a96 96 0 0 1 68 28.1c14 13.94 21.86 33.91 21.86 33.91a121 121 0 0 1 22-33.91A96 96 0 0 1 367.79 64c25.78 0 54.46 3 80.5 16C486.14 100.55 508.74 139.46 508.74 184c0 48.16-19.39 97-59.55 145.63-18.77 22.87-52.8 59.45-131.39 112.8a32 32 0 0 1-18 5.57" fill="currentColor"/></svg>
