<?xml version="1.0" encoding="utf-8"?>
<!-- Generator: Adobe Illustrator 26.3.1, SVG Export Plug-In . SVG Version: 6.00 Build 0)  -->
<svg version="1.1" id="Layer_1" xmlns="http://www.w3.org/2000/svg" xmlns:xlink="http://www.w3.org/1999/xlink" x="0px" y="0px"
	 viewBox="0 0 128 128" style="enable-background:new 0 0 128 128;" xml:space="preserve">
<path d="M72.1,3.5c-4.6-4.6-12-4.6-16.6,0l-50,48.4c-3.6,3.6-5.4,8.6-4.8,13.6l5.6,49.2c0.8,7.6,7.2,13.2,14.8,13.2h16.4
	c4.6,0,8.2-3.6,8.2-8.2v-24c0-5.2,4.2-9.6,9.6-9.6h16.8c5.2,0,9.6,4.2,9.6,9.6v24.2c0,4.6,3.6,8.2,8.2,8.2h16.4
	c7.6,0,14-5.8,14.8-13.2l5.6-49.2c0.6-5-1.2-10.2-4.8-13.6L72.1,3.5z"/>
</svg>
