<?xml version="1.0" encoding="utf-8"?>
<!-- Generator: Adobe Illustrator 26.3.1, SVG Export Plug-In . SVG Version: 6.00 Build 0)  -->
<svg version="1.1" id="Layer_1" xmlns="http://www.w3.org/2000/svg" xmlns:xlink="http://www.w3.org/1999/xlink" x="0px" y="0px"
	 viewBox="0 0 128 128" style="enable-background:new 0 0 128 128;" xml:space="preserve">
<path d="M102.5,50.1c-6.7-6.7-17.1-6.7-35.6-6.7c-1.3,0-6.2,0-7.5,0c-3.9,0-7.5,0-10.7,0.1V25.6c0-8.7,7.3-15.7,16-15.3
	C73,10.7,79.3,17.8,79.3,26v2.2c0,2.8,2.3,5.1,5.1,5.1h0c2.8,0,5.1-2.3,5.1-5.1v-2C89.6,11.8,77.9-0.3,63.5,0
	C49.6,0.3,38.4,11.6,38.4,25.6V44c-6.3,0.8-11,2.5-14.6,6.1c-6.7,6.7-6.7,17.1-6.7,35.6c0,18.5,0,28.8,6.7,35.6
	c6.7,6.7,17.1,6.7,35.6,6.7c1.3,0,6.2,0,7.5,0c18.5,0,28.8,0,35.6-6.7c6.7-6.7,6.7-17.1,6.7-35.6C109.3,67.1,109.3,56.8,102.5,50.1z
	"/>
</svg>
