<svg xmlns="http://www.w3.org/2000/svg" viewBox="0 0 48 48">
  <path d="M40 9.5c-3-1.4-6.2-2.4-9.5-2.9-.5.8-.9 1.6-1.2 2.4-3.5-.5-7-.5-10.5 0-.4-.8-.8-1.7-1.2-2.5-3.4.6-6.6 1.6-9.6 3C2 18.4.4 27 1.2 35.6c3.5 2.6 7.5 4.6 11.6 5.8.9-1.3 1.8-2.6 2.5-4-1.4-.5-2.7-1.1-3.9-1.9.3-.2.7-.5 1-.7 7.4 3.5 15.9 3.5 23.3 0 .3.3.6.5 1 .7-1.3.7-2.6 1.4-3.9 1.9.7 1.4 1.5 2.8 2.5 4 4.2-1.3 8.1-3.2 11.6-5.8.9-9.9-1.7-18.5-6.9-26.1zM16.4 30.3c-2.3 0-4.1-2.1-4.1-4.6s1.8-4.6 4.1-4.6 4.2 2.1 4.1 4.6-1.8 4.6-4.1 4.6zm15.2 0c-2.3 0-4.1-2.1-4.1-4.6s1.8-4.6 4.1-4.6 4.2 2.1 4.1 4.6-1.7 4.6-4.1 4.6z"/>
</svg>
