<svg xmlns="http://www.w3.org/2000/svg" viewBox="0 0 48 48">
  <path d="M14.5 1.2c-2.5.1-4.1.5-5.6 1-1.5.6-2.8 1.4-4.1 2.7S2.8 7.5 2.2 9c-.6 1.5-.9 3.1-1.1 5.6S1 17.8 1 24s0 7 .2 9.5c.1 2.4.5 4.1 1.1 5.6.6 1.5 1.4 2.8 2.7 4.1 1.3 1.3 2.6 2.1 4.1 2.6 1.5.6 3.1 1 5.6 1.1 2.3.1 3.1.1 9.3.1 6.2 0 7 0 9.5-.2s4.1-.5 5.6-1.1c1.5-.6 2.8-1.4 4.1-2.7s2.1-2.6 2.6-4.1c.6-1.5 1-3.1 1.1-5.6.1-2.3.1-3.1.1-9.3 0-6.2 0-7-.2-9.5s-.5-4.1-1.1-5.6c-.6-1.5-1.4-2.8-2.7-4.1-1.3-1.3-2.6-2.1-4.1-2.6-1.5-.6-3.1-1-5.6-1.1C31 1 30.2 1 24 1c-6.3 0-7.1 0-9.5.2m.2 41.5c-2.2-.1-3.5-.5-4.3-.8-1.1-.4-1.8-.9-2.6-1.7-.8-.8-1.3-1.6-1.7-2.6-.3-.8-.7-2-.8-4.3-.1-2.4-.1-3.2-.2-9.3 0-6.1 0-6.9.1-9.3.1-2.2.5-3.5.8-4.3.5-1 1-1.8 1.8-2.6s1.6-1.3 2.6-1.7c.8-.3 2-.7 4.3-.8 2.4-.1 3.2-.1 9.3-.2 6.1 0 6.9 0 9.3.1 2.2.1 3.5.5 4.3.8 1.1.4 1.8.9 2.6 1.7s1.3 1.6 1.7 2.6c.3.8.7 2 .8 4.3.1 2.4.1 3.2.2 9.3s0 6.9-.1 9.3c-.1 2.2-.5 3.5-.8 4.3-.4 1.1-.9 1.8-1.7 2.6-.8.8-1.6 1.3-2.6 1.7-.8.3-2 .7-4.3.8-2.4.1-3.2.1-9.3.2s-6.9 0-9.4-.1m18.8-31c0 1.5 1.2 2.8 2.8 2.8 1.5 0 2.8-1.2 2.8-2.8 0-1.5-1.2-2.8-2.8-2.8-1.6 0-2.8 1.3-2.8 2.8M12.2 24c0 6.5 5.3 11.8 11.8 11.8S35.8 30.5 35.8 24 30.5 12.2 24 12.2c-6.5 0-11.8 5.3-11.8 11.8m4.1 0c0-4.2 3.4-7.7 7.7-7.7 4.2 0 7.7 3.4 7.7 7.7 0 4.2-3.4 7.7-7.7 7.7-4.2 0-7.7-3.4-7.7-7.7"/>
</svg>
