<svg xmlns="http://www.w3.org/2000/svg" viewBox="0 0 48 48">
  <path d="M47 21.5c-.2-.5-.7-.8-1.3-.8h-4c-.4 0-.7.1-1 .4-2.4 2.2-5.2 3.2-8.5 3-5.7-.4-10-4.7-10-10 0-4 3.3-7.3 7.4-7.3 1.6 0 3.3.8 4.4 2 .2.2.5.6.6 1 .1.3.1.6 0 .9-.3.7-1.1 1.1-1.8.9-.5-.2-.9-.3-1.4-.3-1.8 0-3.3 1.1-3.9 2.8-.6 1.6-.1 3.5 1.2 4.6l.2.2.1.1c0 .1.1.1.2.1 2.1 1.2 4.6 1.3 6.8.2 2.5-1.2 4.3-3.7 4.7-6.7.4-2.7-.4-5.4-2.2-7.6-2.1-2.5-5.4-4-8.7-4.1h-.2c-7.2 0-13.1 5.8-13.2 13 0 1.4.2 2.8.5 4.1-.3 0-.5-.1-.8-.1-5.9-.4-11.1 2-15 6.8-.4.4-.4 1-.2 1.6.2.5.7.8 1.3.8h4c.4 0 .7-.1 1-.4 2.4-2.2 5.2-3.2 8.5-3 5.7.4 10 4.7 10 10 0 4-3.3 7.3-7.4 7.3-1.6 0-3.3-.8-4.4-2-.2-.2-.5-.6-.6-1-.1-.3-.1-.6 0-.9.3-.7 1.1-1.1 1.8-.9.5.2.9.3 1.4.3 1.8 0 3.3-1.1 3.9-2.8.6-1.6.1-3.5-1.2-4.6l-.2-.2v.1c0-.1-.1-.1-.2-.1-2.1-1.2-4.7-1.3-6.8-.2-2.5 1.2-4.3 3.7-4.7 6.7-.4 2.7.4 5.4 2.2 7.6 2.1 2.5 5.4 4 8.7 4.1h.2c7.2 0 13.1-5.8 13.2-13 0-1.4-.2-2.8-.5-4.1.3 0 .5.1.8.1h1.2c5.4 0 10.2-2.4 13.8-6.9.2-.5.3-1.1.1-1.7z"/>
</svg>
