<?xml version="1.0" encoding="utf-8"?>
<!-- Generator: Adobe Illustrator 27.4.1, SVG Export Plug-In . SVG Version: 6.00 Build 0)  -->
<svg version="1.1" id="Layer_1" xmlns="http://www.w3.org/2000/svg" xmlns:xlink="http://www.w3.org/1999/xlink" x="0px" y="0px"
	 viewBox="0 0 128 128" style="enable-background:new 0 0 128 128;" xml:space="preserve">
<g>
	<polygon points="96,0 96,109.9 0,96 96,128 128,114.7 128,13.3 	"/>
	<path d="M43.7,88V68.8L64,82.7l16-5.3V34.7l-16-5.3L44.3,43.2V24L32,21.3L10.7,40v8l12.3,8l-12.3,8v8L32,90.7L43.7,88z M64,45.3
		v21.3L43.7,56L64,45.3z M17.1,43.2L32,32v18.7L17.1,43.2z M32,61.3V80L17.1,68.8L32,61.3z"/>
</g>
</svg>
