<svg xmlns="http://www.w3.org/2000/svg" viewBox="0 0 48 48">
  <path d="M40.3 7.6C36 3.3 30.2.9 24.1.9 11.5.9 1.2 11.2 1.2 23.8c0 4 1.1 8 3.1 11.5L1 47.1l12.1-3.2c3.3 1.8 7.1 2.8 10.9 2.8 12.7 0 23-10.3 23-22.9 0-6.1-2.4-11.9-6.7-16.2zM24.1 42.8c-3.4 0-6.8-.9-9.7-2.7l-.7-.4-7.2 1.9 1.9-7-.4-.7c-1.9-3-2.9-6.5-2.9-10.1 0-10.5 8.5-19 19-19 5.1 0 9.9 2 13.5 5.6 3.6 3.6 5.6 8.4 5.6 13.5-.1 10.4-8.6 18.9-19.1 18.9zm10.4-14.2c-.6-.3-3.4-1.7-3.9-1.9-.5-.2-.9-.3-1.3.3s-1.5 1.9-1.8 2.2c-.3.4-.7.4-1.2.1-.6-.3-2.4-.9-4.6-2.8-1.7-1.5-2.8-3.4-3.2-4-.3-.6 0-.9.3-1.2.3-.3.6-.7.9-1 .3-.3.4-.6.6-1 .2-.4.1-.7 0-1-.1-.3-1.3-3.1-1.8-4.2s-.9-1-1.3-1h-1.1c-.4 0-1 .1-1.5.7s-2 2-2 4.8 2.1 5.5 2.3 5.9c.3.4 4 6.2 9.8 8.6 1.4.6 2.4.9 3.3 1.2 1.4.4 2.6.4 3.6.2 1.1-.2 3.4-1.4 3.9-2.7.5-1.3.5-2.5.3-2.7-.3-.1-.7-.2-1.3-.5z" />
</svg>
