<svg xmlns="http://www.w3.org/2000/svg" viewBox="0 0 48 48">
  <path d="M24 1C11.3 1 1 11.3 1 24s10.3 23 23 23 23-10.3 23-23S36.7 1 24 1zm-9.2 39.5C9 37.3 5.1 31.1 5.1 24 5.1 13.5 13.5 5.1 24 5.1c2.7 0 4.8 1 5.8 2.2 1.1 1.2 1.4 3.3 1 6.2l-6.1 1.2c-5.6 1-8.6 4.1-9.7 9.7-.1.8-.3 1.6-.4 2.3-.1.3-.1.6-.2.9-.1.8-.3 1.5-.4 2.2-.2 1-.4 1.9-.5 2.6-.6 3.6-.1 6.2 1.3 8.1zM30 17.8c-.1.8-.3 1.7-.3 2.5-.2.8-.3 1.7-.5 2.5-.8 3.9-2.7 5.7-6.6 6.5l-4.6.9.3-1.8c0-.2.1-.5.1-.7.2-.8.3-1.6.5-2.5.7-3.9 2.6-5.7 6.5-6.5l4.6-.9zm-6 25.1c-2.7 0-4.8-1-5.8-2.3-1-1.2-1.3-3.3-1-6.2l6.1-1.2c5.6-1 8.6-4.1 9.7-9.7.1-.8.3-1.6.4-2.3.1-.3.1-.6.2-.9.2-.9.3-1.8.5-2.5.2-.8.3-1.6.4-2.2.6-3.6.1-6.3-1.3-8.1 5.8 3.2 9.7 9.4 9.7 16.5 0 10.5-8.5 18.9-18.9 18.9z" />
</svg>
