<?xml version="1.0" encoding="utf-8"?>
<!-- Generator: Adobe Illustrator 27.5.0, SVG Export Plug-In . SVG Version: 6.00 Build 0)  -->
<svg version="1.1" id="Layer_1" xmlns="http://www.w3.org/2000/svg" xmlns:xlink="http://www.w3.org/1999/xlink" x="0px" y="0px"
	 viewBox="0 0 512 512" style="enable-background:new 0 0 512 512;" xml:space="preserve">
<path d="M510.5,390.7L510.5,390.7c-0.1-1.1-0.3-2.1-0.5-3.1c-1.1-6.4-2.4-12.8-3.9-19c-2.7-10.9-6.1-21.6-10.1-32
	c-3.4-8.8-7.3-17.3-11.6-25.6c-5.5-10.6-11.8-20.8-18.7-30.5c-8.5-11.9-17.9-23-28.2-33.2c-4.3-4.3-8.8-8.5-13.4-12.4
	c-10-8.6-20.7-16.5-32-23.6c0.1-0.2,0.2-0.3,0.3-0.5c5.2-8.9,10.3-17.8,15.5-26.8c5.1-8.7,10.1-17.4,15.2-26.1
	c3.6-6.3,7.3-12.5,10.9-18.8c0.9-1.5,1.5-3,2-4.6c1.4-4.4,1.5-9,0.3-13.3c-0.3-1.1-0.6-2.1-1.1-3.1c-0.4-1-0.9-2-1.5-2.9
	c-1.9-3.2-4.7-6.1-8.2-8.1c-3.1-1.8-6.5-2.9-10-3.2c-1.5-0.1-3-0.1-4.4,0c-1.2,0.1-2.4,0.3-3.6,0.7c-4.3,1.1-8.2,3.5-11.3,6.9
	c-1.1,1.2-2.1,2.6-3,4.1c-3.6,6.3-7.3,12.5-10.9,18.8l-15.2,26.1c-5.2,8.9-10.3,17.8-15.5,26.8c-0.6,1-1.1,1.9-1.7,2.9
	c-0.8-0.3-1.6-0.6-2.3-0.9c-28.5-10.9-59.4-16.8-91.7-16.8c-0.9,0-1.8,0-2.6,0c-28.7,0.3-56.3,5.3-82,14.2c-3,1-5.9,2.1-8.8,3.3
	c-0.5-0.9-1.1-1.8-1.6-2.7c-5.2-8.9-10.3-17.8-15.5-26.8c-5.1-8.7-10.1-17.4-15.2-26.1c-3.6-6.3-7.3-12.5-10.9-18.8
	c-0.9-1.5-1.9-2.8-3-4.1c-3.1-3.4-7.1-5.7-11.3-6.9c-1.2-0.3-2.4-0.5-3.6-0.7c-1.5-0.1-3-0.2-4.4,0c-3.5,0.3-6.9,1.4-10,3.2
	c-3.5,2.1-6.2,4.9-8.2,8.1c-0.6,0.9-1.1,1.9-1.5,2.9c-0.4,1-0.8,2-1.1,3.1c-1.1,4.3-1.1,8.9,0.3,13.3c0.5,1.6,1.2,3.1,2,4.6
	c3.6,6.3,7.3,12.5,10.9,18.8c5.1,8.7,10.1,17.4,15.2,26.1c5.2,8.9,10.3,17.8,15.5,26.8c0,0.1,0.1,0.1,0.1,0.2
	c-10.4,6.5-20.3,13.7-29.7,21.5c-5.6,4.7-11,9.6-16.2,14.8c-10.3,10.2-19.7,21.4-28.2,33.2c-6.9,9.7-13.2,19.9-18.7,30.5
	c-4.3,8.3-8.2,16.8-11.6,25.6c-4,10.3-7.4,21-10.1,32c-1.5,6.3-2.8,12.6-3.9,19c-0.2,1-0.3,2.1-0.5,3.1c-0.6,3.7-1.1,7.5-1.5,11.3
	h512C511.6,398.2,511.1,394.5,510.5,390.7z M157,320.7L157,320.7c-8.4,12.6-23.5,17.4-33.8,10.5c-10.2-6.8-11.7-22.6-3.3-35.2
	c8.4-12.6,23.5-17.4,33.8-10.5C164,292.3,165.4,308,157,320.7z M389.2,331.2c-10.2,6.8-25.4,2.1-33.8-10.5
	c-8.4-12.6-6.9-28.4,3.3-35.2c10.2-6.8,25.4-2.1,33.8,10.5C400.9,308.6,399.4,324.4,389.2,331.2z"/>
</svg>
