<svg xmlns="http://www.w3.org/2000/svg" viewBox="0 0 48 48">
  <path d="m47.86,36.94h0c-.02-.1-.03-.2-.05-.3-.1-.6-.22-1.2-.37-1.79-.25-1.03-.57-2.03-.95-3-.32-.82-.68-1.62-1.09-2.4-.52-1-1.1-1.95-1.75-2.86-.79-1.11-1.68-2.16-2.65-3.12-.41-.4-.83-.79-1.26-1.17-.94-.81-1.94-1.55-3-2.21,0-.02.02-.03.03-.05.48-.84.97-1.67,1.45-2.51.47-.82.95-1.64,1.42-2.45.34-.59.68-1.18,1.02-1.76.08-.14.14-.28.19-.43.13-.41.14-.84.03-1.25-.03-.1-.06-.2-.1-.29-.04-.09-.09-.19-.14-.28-.18-.3-.44-.57-.77-.76-.29-.17-.61-.27-.94-.3-.14-.01-.28-.01-.42,0-.11.01-.23.03-.34.06-.4.11-.77.33-1.06.65-.1.11-.2.24-.28.38-.34.59-.68,1.18-1.02,1.76l-1.42,2.45c-.48.84-.97,1.67-1.45,2.51-.05.09-.11.18-.16.28-.07-.03-.15-.06-.22-.09-2.67-1.02-5.57-1.58-8.59-1.58-.08,0-.16,0-.25,0-2.69.03-5.28.5-7.69,1.34-.28.1-.55.2-.83.31-.05-.09-.1-.17-.15-.26-.48-.84-.97-1.67-1.45-2.51-.47-.82-.95-1.64-1.42-2.45-.34-.59-.68-1.18-1.02-1.76-.08-.14-.17-.27-.28-.38-.29-.32-.66-.54-1.06-.65-.11-.03-.23-.05-.34-.06-.14-.01-.28-.02-.42,0-.33.03-.65.13-.94.3-.33.19-.58.46-.76.76-.05.09-.1.18-.14.28-.04.09-.07.19-.1.29-.11.4-.1.83.03,1.25.05.15.11.29.19.43.34.59.68,1.18,1.02,1.76.47.82.95,1.64,1.42,2.45.48.84.97,1.67,1.45,2.51,0,0,0,.01.01.02-.98.61-1.91,1.28-2.78,2.02-.53.44-1.03.9-1.52,1.39-.97.96-1.85,2.01-2.65,3.12-.65.91-1.23,1.86-1.75,2.86-.4.78-.77,1.58-1.09,2.4-.38.97-.69,1.97-.95,3-.14.59-.27,1.18-.37,1.79-.02.1-.03.2-.05.29-.05.35-.1.7-.14,1.06h48c-.04-.36-.08-.71-.14-1.06Zm-33.14-6.58h0c-.79,1.19-2.21,1.63-3.17.99-.96-.64-1.1-2.12-.31-3.31.79-1.19,2.21-1.63,3.17-.99.96.64,1.1,2.12.31,3.31Zm21.76.99c-.96.64-2.38.2-3.17-.99-.79-1.19-.65-2.67.31-3.31.96-.64,2.38-.2,3.17.99.79,1.19.65,2.67-.31,3.31Z" />
</svg>
