<svg xmlns="http://www.w3.org/2000/svg" viewBox="0 0 48 48">
  <path d="M16.5 24.8c-2.8 1.3-4.8 3.1-6 4.7l-3.9-3.9c-.9-.9-.9-2.3 0-3.2L22.4 6.5c.9-.9 2.3-.9 3.2 0l4.4 4.4c.5.5.9 1.1 1.1 1.8.6 1.7 1.2 4.7-1.2 7.5-3.7 4.4-7.4 1.8-13.4 4.6zm21.1-6.3c-1.3 1.5-3.2 3.3-6 4.7-6.1 2.8-9.7.3-13.5 4.7-2.3 2.8-1.8 5.7-1.2 7.5.3.7.6 1.3 1.1 1.8l4.4 4.4c.9.9 2.3.9 3.2 0l15.9-15.9c.9-.9.9-2.3 0-3.2l-3.9-4zm8.5 7.7-4.9 4.9v7c0 1.7-1.4 3.1-3.1 3.1h-7l-4.9 4.9c-1.2 1.2-3.1 1.2-4.4 0l-4.9-4.9h-7c-1.7 0-3.1-1.4-3.1-3.1v-7l-4.9-4.9c-1.2-1.2-1.2-3.1 0-4.4l4.9-4.9v-7c0-1.7 1.4-3.1 3.1-3.1h7l4.9-4.9C23 .7 25 .7 26.2 1.9l4.9 4.9h7c1.7 0 3.1 1.4 3.1 3.1v7l4.9 4.9c1.2 1.2 1.2 3.2 0 4.4zm-2-3.7-4.8-4.8v-6.8c0-1.2-1-2.2-2.2-2.2h-6.8l-4.8-4.8c-.8-.8-2.2-.8-3.1 0l-4.8 4.8h-6.8c-1.2 0-2.2 1-2.2 2.2v6.8l-4.8 4.8c-.8.8-.8 2.2 0 3.1l4.8 4.8v6.8c0 1.2 1 2.2 2.2 2.2h6.8l4.8 4.8c.8.8 2.2.8 3.1 0l4.8-4.8h6.8c1.2 0 2.2-1 2.2-2.2v-6.8l4.8-4.8c.8-.9.8-2.3 0-3.1z"/>
</svg>
