<svg xmlns="http://www.w3.org/2000/svg" viewBox="0 0 48 48">
  <path d="M17.1 24c0 3.8 3.1 6.9 6.9 6.9 3.8 0 6.9-3.1 6.9-6.9 0-3.8-3.1-6.9-6.9-6.9-3.8 0-6.9 3.1-6.9 6.9zm29.6-3.9c-.2-1-.4-2-.7-3 .2 1 .5 2 .7 3-.2-1-.4-2-.7-3H30c2 1.7 3.2 4.1 3.2 6.9 0 1.6-.4 3.2-1.3 4.6L21.4 46.8c.9.2 1.7.2 2.6.2.7 0 1.4 0 2.1-.1 1-.1 2.1-.3 3.1-.5C39.4 44.1 47 34.9 47 24c0-1.3-.1-2.6-.3-3.9zM24 33.2c-3.4 0-6.3-1.8-7.9-4.6L5.5 10.4C-2 20.5.1 34.9 10.3 42.5c2.6 1.9 5.5 3.3 8.7 4l8-13.8c-1 .3-2 .5-3 .5zM7.1 8.5 15 22.1c.9-4.3 4.6-7.4 9-7.4h21.1c-.7-1.6-1.6-3.1-2.6-4.5 1 1.4 1.9 2.9 2.6 4.5-.7-1.6-1.6-3.1-2.6-4.5C34.8.1 20.4-2 10.2 5.6 9.1 6.4 8 7.4 7.1 8.5z"/>
</svg>
