<?xml version="1.0" encoding="utf-8"?>
<!-- Generator: Adobe Illustrator 27.4.1, SVG Export Plug-In . SVG Version: 6.00 Build 0)  -->
<svg version="1.1" id="Layer_1" xmlns="http://www.w3.org/2000/svg" xmlns:xlink="http://www.w3.org/1999/xlink" x="0px" y="0px"
	 viewBox="0 0 128 128" style="enable-background:new 0 0 128 128;" xml:space="preserve">
<style type="text/css">
	.st0{fill-rule:evenodd;clip-rule:evenodd;}
</style>
<g>
	<polygon class="st0" points="55.8,74.2 61,74.2 58.4,68.2 	"/>
	<path class="st0" d="M92.1,0H35.9C9.6,0,0,9.6,0,35.9v56.2C0,118.4,9.6,128,35.9,128h56.2c26.3,0,35.9-9.6,35.9-35.9V35.9
		C128,9.6,118.4,0,92.1,0z M28.7,80.8h-3.4V74h-7.7v6.8h-3.4V64h3.4v6.8h7.7V64h3.4V80.8z M47.8,73.5c0,4.8-2.6,7.6-7.3,7.6
		c-4.6,0-7.2-2.7-7.2-7.4V64h3.4v9.5c0,2.8,1.4,4.3,3.8,4.3c2.5,0,3.8-1.5,3.8-4.2V64h3.4V73.5z M42.7,21.3h3
		c0,10.1,8.2,18.3,18.3,18.3c10.1,0,18.3-8.2,18.3-18.3h3c0,11.8-9.6,21.3-21.3,21.3C52.2,42.7,42.7,33.1,42.7,21.3z M63.7,80.7
		l-1.5-3.5h-7.7L53,80.7h-3.5L57,64h3l7.4,16.7H63.7z M85.2,80.8h-2.8l-3.8-11l-3.8,11h-2.8L66,64h3.6l3.7,11.5L77.2,64h2.8
		l3.8,11.5L87.5,64H91L85.2,80.8z M106.4,80.7H93.7V64H106v3.1h-9v3.4h6.2v3.1h-6.2v4.1h9.3V80.7z M113.8,80.7h-3.4V64h3.4V80.7z"/>
</g>
</svg>
