<?xml version="1.0" encoding="utf-8"?>
<!-- Generator: Adobe Illustrator 27.0.0, SVG Export Plug-In . SVG Version: 6.00 Build 0)  -->
<svg version="1.1" id="Layer_1" xmlns="http://www.w3.org/2000/svg" xmlns:xlink="http://www.w3.org/1999/xlink" x="0px" y="0px"
	 viewBox="0 0 128 128" style="enable-background:new 0 0 128 128;" xml:space="preserve">
<path d="M64,0C28.6,0,0,28.6,0,64s28.6,64,64,64s64-28.6,64-64S99.4,0,64,0z M39.7,92c-0.8,1.4-2.3,2.2-3.8,2.2
	c-0.8,0-1.6-0.2-2.2-0.6c-2.1-1.2-2.8-3.9-1.6-6c0,0,0,0,0,0l4.4-7.3c0.4-0.8,1.3-1.2,2.2-1.2h0.6c3.2,0,5.4,1.9,6,3.8L39.7,92z
	 M76.7,77.7l-28.6,0h-19c-2.4,0-4.4-2-4.4-4.4c0-0.1,0-0.1,0-0.2c0.1-2.4,2.2-4.2,4.6-4.2H43l16.3-27.8l0,0l-5.3-9
	c-1.2-2.1-0.7-4.8,1.4-6.1c2.1-1.3,4.8-0.7,6.2,1.3c0,0.1,0.1,0.1,0.1,0.2l2.8,4.8h0l2.8-4.8c1.3-2.1,4-2.8,6.1-1.6
	c0,0,0.1,0.1,0.1,0.1c2,1.3,2.6,4,1.4,6.1l-5.3,9l-5.1,8.8l-11.2,19v0h16.5c2.1,0,4.6,1.1,5.7,2.9l0.1,0.2c0.9,1.6,1.4,2.6,1.4,4.2
	C77,76.7,76.9,77.2,76.7,77.7L76.7,77.7z M98.9,77.7h-7.7v0l5.7,9.6c1.3,2.1,0.6,4.8-1.5,6.2c-0.7,0.4-1.5,0.6-2.3,0.6
	c-1.6,0-3-0.8-3.8-2.2l-8.4-14.2l-5.2-8.9l-6.7-11.5c-2-3.3-2-7.5-0.2-10.9c1.3-2.3,2.3-3,2.3-3L86,68.9h12.8c2.4,0,4.5,1.8,4.6,4.2
	c0.1,2.5-1.8,4.5-4.3,4.6C99,77.7,99,77.7,98.9,77.7L98.9,77.7z"/>
</svg>
