<?xml version="1.0" encoding="utf-8"?>
<!-- Generator: Adobe Illustrator 27.0.0, SVG Export Plug-In . SVG Version: 6.00 Build 0)  -->
<svg version="1.1" id="Layer_1" xmlns="http://www.w3.org/2000/svg" xmlns:xlink="http://www.w3.org/1999/xlink" x="0px" y="0px"
	 viewBox="0 0 128 128" style="enable-background:new 0 0 128 128;" xml:space="preserve">
<path d="M119,9c-9-9-23.5-9-52.4-9h-5.1h0C32.5,0,18,0,9,9c-9,9-9,23.5-9,52.4v5.1c0,29,0,43.4,9,52.4
	c9,9,23.5,9,52.4,9h5.1c29,0,43.4,0,52.4-9c9-9,9-23.5,9-52.4v-5.1C128,32.5,128,18,119,9z M106.5,79.1c0,4-3.8,7-7.7,6l-8.6-2.1
	c-1.1-0.3-1.9-1.2-1.9-2.3l-1.1-31.8c-0.3-4.2-3.4-7.6-6.7-8.6c-0.2-0.1-0.4,0-0.5,0.2c-0.1,0.2-0.1,0.4,0.1,0.5
	c0.8,0.6,3,2.7,3,6.2l0,41.6c0,4-3.8,7-7.7,6l-8.6-2.2c-1.1-0.3-1.8-1.2-1.8-2.3l-1.1-31.8c-0.3-4.2-3.4-7.6-6.7-8.6
	c-0.2-0.1-0.4,0-0.5,0.2c-0.1,0.2-0.1,0.4,0.1,0.5c0.8,0.6,3,2.7,3,6.2l0,41.6c0,4-3.8,7-7.7,6l-24.8-6.2c-3.4-0.9-5.9-3.9-5.9-7.5
	V48.9c0-4,3.8-7,7.7-6l15.6,3.9v-7.5c0-4,3.8-7,7.7-6l15.6,3.9v-7.5c0-4,3.8-7,7.7-6l24.8,6.2c3.4,0.9,5.9,3.9,5.9,7.5V79.1z"/>
</svg>
