<svg xmlns="http://www.w3.org/2000/svg" viewBox="0 0 256 256"><path d="M114.67.34C50.24 7.01 0 61.47 0 127.66c0 70.69 57.31 128 128 128s128-57.31 128-128C256 61.47 205.76 7.01 141.33.34v27.42c49.35 6.52 87.43 48.76 87.43 99.89 0 55.65-45.11 100.77-100.77 100.77-55.65 0-100.77-45.11-100.77-100.77 0-51.13 38.08-93.37 87.43-99.89V.34z"/><path d="M61.21 182.13c25.94 32.13 72.12 41.5 109 20.2 40.81-23.56 54.8-75.75 31.23-116.57S125.7 30.97 84.88 54.53c-36.89 21.3-51.86 65.97-37 104.5l24.28-14.02c-7.54-25.09 2.81-52.98 26.49-66.64 27.65-15.96 63-6.49 78.96 21.16 15.96 27.65 6.49 63-21.16 78.97-23.67 13.67-53 8.69-70.96-10.38l-24.28 14.01z"/><path d="M113.76 87.43c-16.56 5.86-28.43 21.66-28.43 40.23 0 23.56 19.1 42.67 42.67 42.67 23.56 0 42.67-19.1 42.67-42.67 0-18.57-11.86-34.37-28.43-40.23v40.23h-.02c0 7.85-6.37 14.22-14.22 14.22-7.85 0-14.22-6.37-14.22-14.22h-.02V87.43z"/></svg>
