<svg xmlns="http://www.w3.org/2000/svg" viewBox="0 0 256 256"><path d="M24.88 215.29c.09-.06.18-.12.24-.18-.06.06-.15.12-.24.18zM95.44 160c0-.8.09-1.59.12-2.36l-23.91-1.83c-1.06 16.47 3.39 32.53 12.1 45.87l20.52-13.11c-5.56-8.14-8.83-17.97-8.83-28.57zm11.1-31.65-32.3-31.94c-9.48 10.72-16.74 23.73-20.78 38.46-.89 3.28-1.59 6.58-2.15 9.89l44.37 10.18c1-10 4.92-19.15 10.86-26.59zm115.66-21.16 22.35-16.62c-5.28-7.59-16.92-20.96-24.44-26.57l-18.13 21.82c12.1 9.15 16.73 16.44 20.22 21.37z"/><path d="M51.19 76.63c-18.13 19.45-25.06 33.8-30.32 61.14l25.92 5.76c3.22-19.34 11.9-36.69 24.35-50.51L51.19 76.63zm-39.47 71.89c-1.86 30.52 6.26 63.11 21.99 86.73l45.84-30.44c-9.45-14.38-14.26-31.65-13.11-49.42l-54.72-6.87c0-.12 0 .09 0 0zm23.5-106.04 44.4 49.8c14.41-14.52 33.36-23.85 53.7-26.98L125.19 0C90.74 4.37 59.51 19.69 35.22 42.48zm153.09 89.42 29.85-21.17c-5.25-7.59-11.78-14.32-19.28-19.93l-24.15 27.34c5.34 3.66 9.98 8.32 13.58 13.76zm33.89-24.71 22.35-16.62c-5.28-7.59-16.92-20.96-24.44-26.57l-18.13 21.82c12.1 9.15 16.73 16.44 20.22 21.37zm-116.28 83.6L72.8 217.12c4.52 5.23 11.51 12.28 17.06 16.38l23.53-34.83a53.541 53.541 0 0 1-7.47-7.88z"/><path d="m140.93 109.58-6.61-38.44c-19.31 2.98-38.2 12.55-51.78 26.45l25.74 28.78c8.18-9.23 19.66-15.46 32.65-16.79zM69.31 219.84l-17.74 14.91c6.05 7 15.14 15.79 22.64 21.25l13.34-18.18a97.97 97.97 0 0 1-18.24-17.98zm76.96-134.76h-.32c-1.3 0-2.57.09-3.84.15l1.3 24.09c.89-.06 1.8-.03 2.72-.03 9.56 0 18.48 2.69 26.1 7.29l13.79-19.96c-11.53-7.26-25.14-11.51-39.75-11.54zm-.15-5.73c15.56 0 30.05 4.4 42.36 12.04.24.15.5.3.77.44L218 49.97c-18.95-12.31-41.3-19.96-65.51-21.11-4.22-.21-8.41-.18-12.55.03l1.77 50.6c1.49-.08 2.94-.14 4.41-.14z"/></svg>
