<svg xmlns="http://www.w3.org/2000/svg" viewBox="0 0 48 48">
  <path fill-rule="evenodd" d="M24 1C11.3 1 1 11.3 1 24s10.3 23 23 23 23-10.3 23-23S36.7 1 24 1zm10.7 15.6c-.3 3.6-1.8 12.5-2.6 16.5-.3 1.7-1 2.3-1.6 2.4-1.3.1-2.3-.9-3.6-1.7-2-1.3-3.2-2.2-5.1-3.4-2.3-1.5-.8-2.3.5-3.7.3-.4 6.2-5.7 6.3-6.2 0-.1 0-.3-.1-.4-.1-.1-.3-.1-.5 0-.2 0-3.4 2.2-9.7 6.4-.9.6-1.7.9-2.5.9s-2.4-.5-3.6-.8c-1.4-.5-2.6-.7-2.5-1.5.1-.4.6-.8 1.7-1.3 6.7-2.9 11.2-4.8 13.4-5.8 6.4-2.7 7.7-3.1 8.6-3.1.2 0 .6 0 .9.3.2.2.3.4.3.6.1.1.1.5.1.8z" clip-rule="evenodd"/>
</svg>
