<?xml version="1.0" encoding="UTF-8"?>
<svg id="a" data-name="Layer 1" xmlns="http://www.w3.org/2000/svg" viewBox="0 0 48 48">
  <path d="m39.91,17.36c-.24.19-4.52,2.6-4.52,7.96,0,6.2,5.44,8.39,5.6,8.44-.03.13-.86,3-2.87,5.93-1.79,2.57-3.65,5.14-6.49,5.14s-3.57-1.65-6.85-1.65-4.33,1.7-6.93,1.7-4.41-2.38-6.49-5.3c-2.41-3.43-4.36-8.77-4.36-13.83,0-8.12,5.28-12.42,10.47-12.42,2.76,0,5.06,1.81,6.79,1.81s4.22-1.92,7.36-1.92c1.19,0,5.47.11,8.28,4.14h0Zm-9.77-7.58c1.3-1.54,2.22-3.68,2.22-5.82,0-.3-.03-.6-.08-.84-2.11.08-4.63,1.41-6.14,3.17-1.19,1.35-2.3,3.49-2.3,5.66,0,.33.05.65.08.76.13.03.35.05.57.05,1.9,0,4.28-1.27,5.66-2.98h0Z"/>
</svg>