<?xml version="1.0" encoding="utf-8"?>
<!-- Generator: Adobe Illustrator 27.0.0, SVG Export Plug-In . SVG Version: 6.00 Build 0)  -->
<svg version="1.1" id="Layer_1" xmlns="http://www.w3.org/2000/svg" xmlns:xlink="http://www.w3.org/1999/xlink" x="0px" y="0px"
	 viewBox="0 0 128 128" style="enable-background:new 0 0 128 128;" xml:space="preserve">
<g>
	<path d="M112,55.9c-3.6,0-6.5,2.9-6.5,6.5v7.9c0,5.3-4.3,9.6-9.6,9.6H51.7l3.9-3.9c2.5-2.5,2.5-6.7,0-9.2c-2.5-2.5-6.7-2.5-9.2,0
		l-13,13c-3.6,3.6-3.6,9.6,0,13.2l13,13c1.3,1.3,2.9,1.9,4.6,1.9c1.7,0,3.3-0.6,4.6-1.9c2.5-2.5,2.5-6.7,0-9.2L51.7,93h44.1
		c12.5,0,22.6-10.2,22.6-22.6v-7.9C118.5,58.9,115.6,55.9,112,55.9z"/>
	<path d="M76.3,48l-3.9,3.9c-2.5,2.5-2.5,6.7,0,9.2c1.3,1.3,2.9,1.9,4.6,1.9s3.3-0.6,4.6-1.9l13-13c1.8-1.8,2.7-4.1,2.7-6.6
		c0-2.5-1-4.9-2.7-6.6l-13-13c-2.5-2.5-6.7-2.5-9.2,0c-2.5,2.5-2.5,6.7,0,9.2l3.9,3.9H32.1C19.7,35,9.5,45.2,9.5,57.6v7.9
		c0,3.6,2.9,6.5,6.5,6.5s6.5-2.9,6.5-6.5v-7.9c0-5.3,4.3-9.6,9.6-9.6H76.3z"/>
</g>
</svg>
