<?xml version="1.0" encoding="utf-8"?>
<!-- Generator: Adobe Illustrator 26.3.1, SVG Export Plug-In . SVG Version: 6.00 Build 0)  -->
<svg version="1.1" id="Layer_1" xmlns="http://www.w3.org/2000/svg" xmlns:xlink="http://www.w3.org/1999/xlink" x="0px" y="0px"
	 viewBox="0 0 128 128" style="enable-background:new 0 0 128 128;" xml:space="preserve">
<path d="M63.8,10.7c0.2,0,0.5,0.1,0.6,0.1L112,30.7c0.9,0.4,1.1,1,1.1,1.2c0,30.8-11.9,51.9-21.9,64.2c-12.2,15-24.4,20.7-27.5,21.1
	c-3.1-0.5-15.2-6.3-27.2-21C26.7,84,14.8,62.9,14.8,31.9c0-0.5,0.3-1,0.8-1.2l0,0l0,0l47.5-19.9C63.3,10.8,63.6,10.8,63.8,10.7
	 M63.8,0c-1.3,0-3.4,0.4-4.6,0.9l-47.7,20C7,22.7,4.1,27.1,4.1,31.9c0,64.4,47.1,96.1,59.7,96.1c13.5,0,60.1-32.6,60.1-96.1
	c0-4.6-2.9-9-7.6-11.1l-47.9-20C67.2,0.4,65.1,0,63.8,0L63.8,0z"/>
</svg>
