<?xml version="1.0" encoding="utf-8"?>
<!-- Generator: Adobe Illustrator 27.0.0, SVG Export Plug-In . SVG Version: 6.00 Build 0)  -->
<svg version="1.1" id="Layer_1" xmlns="http://www.w3.org/2000/svg" xmlns:xlink="http://www.w3.org/1999/xlink" x="0px" y="0px"
	 viewBox="0 0 128 128" style="enable-background:new 0 0 128 128;" xml:space="preserve">
<path d="M37.3,90.7c2.5,2.5,2.5,6.6,0,9.1l-12.9,12.9c-2.5,2.5-6.6,2.5-9.1,0c-2.5-2.5-2.5-6.6,0-9.1l12.9-12.9
	C30.8,88.2,34.8,88.2,37.3,90.7L37.3,90.7z M28.3,37.3c2.5,2.5,6.6,2.5,9.1,0c2.5-2.5,2.5-6.6,0-9.1L24.5,15.4
	c-2.5-2.5-6.6-2.5-9.1,0c-2.5,2.5-2.5,6.6,0,9.1L28.3,37.3z M99.7,90.7c-2.5-2.5-6.6-2.5-9.1,0c-2.5,2.5-2.5,6.6,0,9.1l12.9,12.9
	c2.5,2.5,6.6,2.5,9.1,0c2.5-2.5,2.5-6.6,0-9.1L99.7,90.7z M64,38.9c-13.9,0-25.1,11.3-25.1,25.1c0,13.9,11.3,25.1,25.1,25.1
	S89.1,77.9,89.1,64C89.1,50.1,77.9,38.9,64,38.9z M64,26.3c3.5,0,6.4-2.9,6.4-6.4V6.4C70.4,2.9,67.5,0,64,0s-6.4,2.9-6.4,6.4v13.5
	C57.6,23.4,60.5,26.3,64,26.3z M64,101.7c-3.5,0-6.4,2.9-6.4,6.4v13.5c0,3.5,2.9,6.4,6.4,6.4s6.4-2.9,6.4-6.4v-13.5
	C70.4,104.6,67.5,101.7,64,101.7z M26.3,64c0-3.5-2.9-6.4-6.4-6.4H6.4C2.9,57.6,0,60.5,0,64c0,3.5,2.9,6.4,6.4,6.4h13.5
	C23.4,70.4,26.3,67.5,26.3,64z M121.6,57.6h-13.5c-3.5,0-6.4,2.9-6.4,6.4c0,3.5,2.9,6.4,6.4,6.4h13.5c3.5,0,6.4-2.9,6.4-6.4
	C128,60.5,125.1,57.6,121.6,57.6z M99.7,37.3l12.9-12.9c2.5-2.5,2.5-6.6,0-9.1v0c-2.5-2.5-6.6-2.5-9.1,0L90.7,28.3
	c-2.5,2.5-2.5,6.6,0,9.1C93.2,39.8,97.2,39.8,99.7,37.3z"/>
</svg>
