<?xml version="1.0" encoding="utf-8"?>
<!-- Generator: Adobe Illustrator 27.0.0, SVG Export Plug-In . SVG Version: 6.00 Build 0)  -->
<svg version="1.1" id="Layer_1" xmlns="http://www.w3.org/2000/svg" xmlns:xlink="http://www.w3.org/1999/xlink" x="0px" y="0px"
	 viewBox="0 0 128 128" style="enable-background:new 0 0 128 128;" xml:space="preserve">
<path d="M110.9,4.3H17.1C7.6,4.3,0,11.9,0,21.3v85.3c0,9.4,7.6,17.1,17.1,17.1h93.9c9.4,0,17.1-7.6,17.1-17.1V21.3
	C128,11.9,120.4,4.3,110.9,4.3z M20.5,65.2c-1.7-1.6-1.8-4.3-0.1-6l13.7-13.7L20.5,31.7c-1.6-1.6-1.8-4.3-0.2-6
	c1.6-1.7,4.3-1.8,6-0.1l16.6,16.5c1.8,1.8,1.8,4.6,0,6.4L26.4,65C24.8,66.7,22.1,66.8,20.5,65.2z M63.9,66.3H45.9
	c-2.3,0-4.2-1.9-4.2-4.2s1.9-4.2,4.2-4.2h17.9c2.1,0,4.1,1.5,4.3,3.7C68.4,64.1,66.5,66.3,63.9,66.3z"/>
</svg>
