<?xml version="1.0" encoding="utf-8"?>
<!-- Generator: Adobe Illustrator 26.3.1, SVG Export Plug-In . SVG Version: 6.00 Build 0)  -->
<svg version="1.1" id="Layer_1" xmlns="http://www.w3.org/2000/svg" xmlns:xlink="http://www.w3.org/1999/xlink" x="0px" y="0px"
	 viewBox="0 0 128 128" style="enable-background:new 0 0 128 128;" xml:space="preserve">
<g>
	<ellipse transform="matrix(0.3827 -0.9239 0.9239 0.3827 17.9306 83.4351)" cx="71.4" cy="28.3" rx="28.3" ry="28.3"/>
	<path d="M71.4,68.5c-46.7,0-56.6,14.8-56.6,29.7c0,14.9,17.9,29.8,56.6,29.8c38.7,0,56.6-14.8,56.6-29.7
		C128,83.4,118.1,68.5,71.4,68.5z"/>
	<path d="M17.2,66.9c0,2.7,2.2,4.9,4.9,4.9s4.9-2.2,4.9-4.9V56.5h10.5c2.7,0,4.9-2.2,4.9-4.9c0-2.7-2.2-4.9-4.9-4.9H26.9V36.3
		c0-2.7-2.2-4.9-4.9-4.9s-4.9,2.2-4.9,4.9v10.5H6.7c-2.7,0-4.9,2.2-4.9,4.9c0,2.7,2.2,4.9,4.9,4.9h10.5V66.9z"/>
</g>
</svg>
