<?xml version="1.0" encoding="utf-8"?>
<!-- Generator: Adobe Illustrator 26.3.1, SVG Export Plug-In . SVG Version: 6.00 Build 0)  -->
<svg version="1.1" id="Layer_1" xmlns="http://www.w3.org/2000/svg" xmlns:xlink="http://www.w3.org/1999/xlink" x="0px" y="0px"
	 viewBox="0 0 128 128" style="enable-background:new 0 0 128 128;" xml:space="preserve">
<path d="M71.4,0c15.5,0,28.3,12.8,28.3,28.3S86.9,56.6,71.4,56.6S43.1,43.8,43.1,28.3S55.9,0,71.4,0z M71.4,128
	c-38.7,0-56.6-14.9-56.6-29.8s9.9-29.7,56.6-29.7S128,83.4,128,98.3S110.1,128,71.4,128z"/>
<path d="M1.9,56.5L1.9,56.5c0-2.7,2.2-4.9,4.9-4.9h30.6c2.7,0,4.9,2.2,4.9,4.9v0c0,2.7-2.2,4.9-4.9,4.9H6.7
	C4,61.3,1.9,59.2,1.9,56.5z"/>
</svg>
