<?xml version="1.0" encoding="utf-8"?>
<!-- Generator: Adobe Illustrator 26.3.1, SVG Export Plug-In . SVG Version: 6.00 Build 0)  -->
<svg version="1.1" id="Layer_1" xmlns="http://www.w3.org/2000/svg" xmlns:xlink="http://www.w3.org/1999/xlink" x="0px" y="0px"
	 viewBox="0 0 128 128" style="enable-background:new 0 0 128 128;" xml:space="preserve">
<path d="M64,0C28.6,0,0,28.6,0,64s28.6,64,64,64s64-28.6,64-64S99.4,0,64,0z M64,20c10.4,0,19,8.6,19,19s-8.6,19-19,19
	s-19-8.6-19-19S53.6,20,64,20z M64,106c-26,0-38-10-38-20s6.6-20,38-20s38,10,38,20S90,106,64,106z"/>
</svg>
