<?xml version="1.0" encoding="utf-8"?>
<!-- Generator: Adobe Illustrator 26.3.1, SVG Export Plug-In . SVG Version: 6.00 Build 0)  -->
<svg version="1.1" id="Layer_1" xmlns="http://www.w3.org/2000/svg" xmlns:xlink="http://www.w3.org/1999/xlink" x="0px" y="0px"
	 viewBox="0 0 128 128" style="enable-background:new 0 0 128 128;" xml:space="preserve">
<g>
	<path d="M64,0C28.7,0,0,28.7,0,64s28.7,64,64,64s64-28.7,64-64S99.3,0,64,0z M64,117.7c-29.6,0-53.7-24.1-53.7-53.7
		S34.4,10.3,64,10.3s53.7,24.1,53.7,53.7S93.6,117.7,64,117.7z"/>
	<path d="M92,58.9H69.2v-23c0-2.8-2.3-5.1-5.2-5.1s-5.2,2.3-5.2,5.1v23h-23c-2.8,0-5.1,2.3-5.1,5.1c0,2.8,2.3,5.2,5.1,5.2h23v22.9
		c0,2.8,2.3,5.1,5.2,5.1s5.2-2.3,5.2-5.1V69.2H92c2.8,0,5.2-2.3,5.2-5.2C97.2,61.2,94.9,58.9,92,58.9z"/>
</g>
</svg>
