<?xml version="1.0" encoding="utf-8"?>
<!-- Generator: Adobe Illustrator 26.3.1, SVG Export Plug-In . SVG Version: 6.00 Build 0)  -->
<svg version="1.1" id="Layer_1" xmlns="http://www.w3.org/2000/svg" xmlns:xlink="http://www.w3.org/1999/xlink" x="0px" y="0px"
	 viewBox="0 0 128 128" style="enable-background:new 0 0 128 128;" xml:space="preserve">
<g>
	<path d="M64,0C28.7,0,0,28.7,0,64s28.7,64,64,64s64-28.7,64-64S99.3,0,64,0z M64,117.7c-29.6,0-53.7-24.1-53.7-53.7
		S34.4,10.3,64,10.3s53.7,24.1,53.7,53.7S93.6,117.7,64,117.7z"/>
	<circle cx="64" cy="88" r="7.1"/>
	<path d="M64,75.4c3,0,5.5-2.4,5.6-5.4l0.8-30.5c0.1-3.6-2.8-6.6-6.4-6.6s-6.5,3-6.5,6.6L58.4,70C58.5,73,61,75.4,64,75.4z"/>
</g>
</svg>
