<?xml version="1.0" encoding="utf-8"?>
<!-- Generator: Adobe Illustrator 27.0.0, SVG Export Plug-In . SVG Version: 6.00 Build 0)  -->
<svg version="1.1" id="Layer_1" xmlns="http://www.w3.org/2000/svg" xmlns:xlink="http://www.w3.org/1999/xlink" x="0px" y="0px"
	 viewBox="0 0 128 128" style="enable-background:new 0 0 128 128;" xml:space="preserve">
<path d="M73,64.1L93.2,44c2.5-2.5,2.5-6.6,0-9.1c-2.5-2.5-6.6-2.5-9.1,0L64,55.1L43.8,34.9c-2.5-2.5-6.6-2.5-9.1,0
	c-2.5,2.5-2.5,6.6,0,9.1l20.2,20.2L34.8,84.2c-2.5,2.5-2.5,6.6,0,9.1c2.5,2.5,6.6,2.5,9.1,0L64,73.2L84,93.3c2.5,2.5,6.6,2.5,9.1,0
	c2.5-2.5,2.5-6.6,0-9.1L73,64.1z"/>
</svg>
