<?xml version="1.0" encoding="utf-8"?>
<!-- Generator: Adobe Illustrator 27.0.0, SVG Export Plug-In . SVG Version: 6.00 Build 0)  -->
<svg version="1.1" id="Layer_1" xmlns="http://www.w3.org/2000/svg" xmlns:xlink="http://www.w3.org/1999/xlink" x="0px" y="0px"
	 viewBox="0 0 128 128" style="enable-background:new 0 0 128 128;" xml:space="preserve">
<g>
	<path d="M109.3,18.7c-25-25-65.5-25-90.5,0s-25,65.5,0,90.5s65.5,25,90.5,0S134.2,43.7,109.3,18.7z M102,102
		C81,122.9,47,122.9,26,102S5.1,47,26,26S81,5.1,102,26S122.9,81,102,102z"/>
	<path d="M87.5,40.5c-2.1-2.1-5.3-2.1-7.3-0.1L63.9,56.7L47.7,40.5c-2-2-5.2-2-7.2,0c-2,2-2.1,5.3-0.1,7.3L56.6,64L40.5,80.2
		c-2,2-2,5.2,0.1,7.3s5.3,2.1,7.3,0.1L64,71.4l16.1,16.1c2,2,5.3,2.1,7.4,0c2-2,2-5.2-0.1-7.3L71.3,64.1l16.3-16.3
		C89.5,45.8,89.5,42.6,87.5,40.5z"/>
</g>
</svg>
