<?xml version="1.0" encoding="utf-8"?>
<!-- Generator: Adobe Illustrator 26.3.1, SVG Export Plug-In . SVG Version: 6.00 Build 0)  -->
<svg version="1.1" id="Layer_1" xmlns="http://www.w3.org/2000/svg" xmlns:xlink="http://www.w3.org/1999/xlink" x="0px" y="0px"
	 viewBox="0 0 128 128" style="enable-background:new 0 0 128 128;" xml:space="preserve">
<path d="M123.5,64.7L123.5,64.7c-13.2-4.2-17.6-20.7-8.3-31l0,0c2.4-2.7,2.3-6.7-0.2-9.3l-11.4-11.4c-2.5-2.5-6.6-2.6-9.3-0.2l0,0
	c-10.3,9.3-26.8,4.9-31-8.3v0c-1.1-3.4-4.7-5.4-8.1-4.4L39.7,4.3c-3.5,0.9-5.6,4.4-4.8,7.9v0c3,13.6-9.1,25.6-22.7,22.7h0
	c-3.5-0.8-7,1.4-7.9,4.8L0.1,55.2c-0.9,3.5,1,7,4.4,8.1c13.2,4.2,17.6,20.7,8.3,31l0,0c-2.4,2.7-2.3,6.7,0.2,9.3l11.4,11.4
	c2.5,2.5,6.6,2.6,9.3,0.2l0,0c10.3-9.3,26.8-4.9,31,8.3c1.1,3.4,4.7,5.4,8.1,4.4l15.5-4.2c3.5-0.9,5.6-4.4,4.8-7.9v0
	c-3-13.6,9.1-25.6,22.7-22.7h0c3.5,0.8,7-1.4,7.9-4.8l4.2-15.5C128.8,69.3,126.9,65.8,123.5,64.7z M64,93.8
	c-16.4,0-29.8-13.3-29.8-29.8S47.6,34.2,64,34.2S93.8,47.6,93.8,64S80.4,93.8,64,93.8z"/>
</svg>
