<?xml version="1.0" encoding="utf-8"?>
<!-- Generator: Adobe Illustrator 27.0.0, SVG Export Plug-In . SVG Version: 6.00 Build 0)  -->
<svg version="1.1" id="Layer_1" xmlns="http://www.w3.org/2000/svg" xmlns:xlink="http://www.w3.org/1999/xlink" x="0px" y="0px"
	 viewBox="0 0 128 128" style="enable-background:new 0 0 128 128;" xml:space="preserve">
<path d="M65.2,64L6.3,121.4c-0.2,0.2-0.5,0.4-0.9,0.4c-0.7,0-1.2-0.6-1.2-1.2V7.5c0-0.3,0.1-0.6,0.4-0.9c0.5-0.5,1.3-0.5,1.8,0
	L65.2,64z M72.4,57.1l17.4-16.7L16-0.3l0,0c-1.3-0.7-2.5,1-1.4,2L72.4,57.1z M14.5,126.3c-1,1,0.2,2.7,1.4,2l0,0l73.8-40.7
	L72.4,70.9L14.5,126.3z M119.6,56.8L99,45.5L79.6,64L99,82.5l20.6-11.3C125.3,68.1,125.3,59.9,119.6,56.8z"/>
</svg>
