<?xml version="1.0" encoding="utf-8"?>
<!-- Generator: Adobe Illustrator 26.3.1, SVG Export Plug-In . SVG Version: 6.00 Build 0)  -->
<svg version="1.1" id="Layer_1" xmlns="http://www.w3.org/2000/svg" xmlns:xlink="http://www.w3.org/1999/xlink" x="0px" y="0px"
	 viewBox="0 0 128 128" style="enable-background:new 0 0 128 128;" xml:space="preserve">
<style type="text/css">
	.st0{fill-rule:evenodd;clip-rule:evenodd;}
</style>
<path class="st0" d="M64,1.6c-35.3,0-64,28.7-64,64c0,28.3,18.3,52.3,43.8,60.7c3.2,0.6,4.4-1.4,4.4-3.1c0-1.5-0.1-5.5-0.1-10.9
	c-17.8,3.9-21.6-8.6-21.6-8.6c-2.9-7.4-7.1-9.4-7.1-9.4c-5.8-4,0.4-3.9,0.4-3.9c6.4,0.5,9.8,6.6,9.8,6.6c5.7,9.8,15,7,18.6,5.3
	c0.6-4.1,2.2-7,4.1-8.6c-14.2-1.6-29.2-7.1-29.2-31.6c0-7,2.5-12.7,6.6-17.2c-0.7-1.6-2.9-8.1,0.6-16.9c0,0,5.4-1.7,17.6,6.6
	c5.1-1.4,10.6-2.1,16-2.2c5.4,0,10.9,0.7,16,2.2c12.2-8.3,17.6-6.6,17.6-6.6c3.5,8.8,1.3,15.3,0.6,16.9c4.1,4.5,6.6,10.2,6.6,17.2
	c0,24.6-15,30-29.2,31.6c2.3,2,4.3,5.9,4.3,11.9c0,8.6-0.1,15.5-0.1,17.6c0,1.7,1.2,3.7,4.4,3.1c25.4-8.5,43.7-32.5,43.7-60.7
	C128,30.2,99.3,1.6,64,1.6z"/>
</svg>
