<?xml version="1.0" encoding="utf-8"?>
<!-- Generator: Adobe Illustrator 27.4.1, SVG Export Plug-In . SVG Version: 6.00 Build 0)  -->
<svg version="1.1" id="Layer_1" xmlns="http://www.w3.org/2000/svg" xmlns:xlink="http://www.w3.org/1999/xlink" x="0px" y="0px"
	 viewBox="0 0 128 128" style="enable-background:new 0 0 128 128;" xml:space="preserve">
<path d="M20.6,83.6L33.2,2.5c0.4-2.8,4.1-3.4,5.5-0.9L52.3,27L20.6,83.6z M110.9,102.4L98.5,28.6c-0.3-1.6-1.8-2.7-3.4-2.4
	c-0.6,0.1-1.1,0.4-1.6,0.8l-76.5,75.4l42.5,24.5c2.7,1.5,5.9,1.5,8.5,0L110.9,102.4z M76.4,38.1l-9.7-18.5c-0.7-1.4-2.5-2-3.9-1.3
	c-0.5,0.3-1,0.7-1.3,1.3L18.6,95.9L76.4,38.1z"/>
</svg>
