<?xml version="1.0" encoding="utf-8"?>
<!-- Generator: Adobe Illustrator 27.0.0, SVG Export Plug-In . SVG Version: 6.00 Build 0)  -->
<svg version="1.1" id="Layer_1" xmlns="http://www.w3.org/2000/svg" xmlns:xlink="http://www.w3.org/1999/xlink" x="0px" y="0px"
	 viewBox="0 0 128 128" style="enable-background:new 0 0 128 128;" xml:space="preserve">
<path d="M116.5,107.3C104.2,120.1,86.9,128,67.8,128C31.1,128,0.7,98.3,0,61.6C-0.5,35.4,13.9,12.4,35.4,0.7
	c4.6-2.5,9.8,1.9,8.1,6.8c-2.7,7.6-4,15.7-3.8,24.2c0.8,35,28.7,63.9,63.6,66c3,0.2,5.9,0.2,8.8,0
	C117.2,97.4,120.2,103.6,116.5,107.3z M125.4,27l-13.7-6.1l-6.1-13.7c-1.5-3.4-6.4-3.4-7.9,0l-6.1,13.7L78,27
	c-3.4,1.5-3.4,6.4,0,7.9L91.7,41l6.1,13.7c1.5,3.4,6.4,3.4,7.9,0l6.1-13.7l13.7-6.1C128.9,33.4,128.9,28.5,125.4,27z"/>
</svg>
