<?xml version="1.0" encoding="utf-8"?>
<!-- Generator: Adobe Illustrator 26.3.1, SVG Export Plug-In . SVG Version: 6.00 Build 0)  -->
<svg version="1.1" id="Layer_1" xmlns="http://www.w3.org/2000/svg" xmlns:xlink="http://www.w3.org/1999/xlink" x="0px" y="0px"
	 viewBox="0 0 128 128" style="enable-background:new 0 0 128 128;" xml:space="preserve">
<path d="M123.5,100.9l-21.1-21.1c3.8-7.7,6.4-16.6,6.4-25.5c0-30-24.3-54.3-54.3-54.3S0.2,24.3,0.2,54.3s24.3,54.3,54.3,54.3
	c8.9,0,17.9-2.6,25.5-6.4l21.1,21.1c6.4,6.4,16,6.4,22.3,0C129.2,116.8,129.2,107.3,123.5,100.9L123.5,100.9z M54.5,95.8
	c-23,0-41.5-18.5-41.5-41.5s18.5-41.5,41.5-41.5S96,31.3,96,54.3S77.5,95.8,54.5,95.8z"/>
</svg>
