<?xml version="1.0" encoding="utf-8"?>
<!-- Generator: Adobe Illustrator 26.3.1, SVG Export Plug-In . SVG Version: 6.00 Build 0)  -->
<svg version="1.1" id="Layer_1" xmlns="http://www.w3.org/2000/svg" xmlns:xlink="http://www.w3.org/1999/xlink" x="0px" y="0px"
	 viewBox="0 0 128 128" style="enable-background:new 0 0 128 128;" xml:space="preserve">
<path d="M116.3,20.8l-47.9-20C67.2,0.4,65.1,0,63.8,0s-3.4,0.4-4.6,0.9l-47.7,20c-4.5,1.8-7.4,6.2-7.4,11
	c0,64.4,47.1,96.1,59.7,96.1c13.5,0,60.1-32.6,60.1-96.1C123.9,27.3,121,22.9,116.3,20.8z M91.5,53.1L68,76.6l-8.6,8.6l-8.6-8.6
	L36.5,62.5c-2.4-2.4-2.4-6.3,0-8.6c2.4-2.4,6.3-2.4,8.6,0L59.3,68l23.5-23.5c2.4-2.4,6.3-2.4,8.6,0C93.8,46.9,93.8,50.8,91.5,53.1z"
	/>
</svg>
