<?xml version="1.0" encoding="utf-8"?>
<!-- Generator: Adobe Illustrator 27.0.0, SVG Export Plug-In . SVG Version: 6.00 Build 0)  -->
<svg version="1.1" id="Layer_1" xmlns="http://www.w3.org/2000/svg" xmlns:xlink="http://www.w3.org/1999/xlink" x="0px" y="0px"
	 viewBox="0 0 128 128" style="enable-background:new 0 0 128 128;" xml:space="preserve">
<g>
	<path d="M107.5,27.5L94.3,14.3c-1.6-1.6-3.8-2.6-6.2-2.6s-4.5,0.9-6.2,2.6L68.8,27.5c-2.5,2.5-2.5,6.6,0,9.1c2.5,2.5,6.6,2.5,9.1,0
		l3.9-3.9v4.9c0,5.2-2.5,10-6.7,13L45.6,71.1C38,76.5,33.4,85.3,33.4,94.6v15.3c0,3.5,2.9,6.4,6.4,6.4s6.4-2.9,6.4-6.4V94.6
		c0-5.2,2.5-10,6.7-13l11-7.8l11,7.8c4.2,3,6.7,7.8,6.7,13v15.3c0,3.5,2.9,6.4,6.4,6.4s6.4-2.9,6.4-6.4V94.6
		c0-9.3-4.6-18.1-12.2-23.5L75.1,66l7.3-5.1c7.6-5.4,12.2-14.1,12.2-23.5v-4.9l3.9,3.9c1.2,1.2,2.9,1.9,4.5,1.9s3.3-0.6,4.5-1.9
		C110,34,110,30,107.5,27.5z"/>
	<path d="M33.4,37.5c0,7.7,3.2,15.2,8.7,20.6c1.2,1.2,2.9,1.8,4.5,1.8c1.7,0,3.3-0.6,4.6-1.9c2.5-2.5,2.4-6.6-0.1-9.1
		c-3.1-3-4.8-7.1-4.8-11.4v-4.9l3.9,3.9c1.2,1.2,2.9,1.9,4.5,1.9s3.3-0.6,4.5-1.9c2.5-2.5,2.5-6.6,0-9.1L46,14.3
		c-1.6-1.6-3.8-2.6-6.2-2.6c-2.3,0-4.5,0.9-6.2,2.6L20.5,27.5C18,30,18,34,20.5,36.5c2.5,2.5,6.6,2.5,9.1,0l3.9-3.9V37.5z"/>
</g>
</svg>
