<?xml version="1.0" encoding="utf-8"?>
<!-- Generator: Adobe Illustrator 27.0.0, SVG Export Plug-In . SVG Version: 6.00 Build 0)  -->
<svg version="1.1" id="Layer_1" xmlns="http://www.w3.org/2000/svg" xmlns:xlink="http://www.w3.org/1999/xlink" x="0px" y="0px"
	 viewBox="0 0 128 128" style="enable-background:new 0 0 128 128;" xml:space="preserve">
<path d="M125.2,90.9l-43-74.7c-8.1-14-28.3-14-36.3,0l-43,74.7c-8,14,2,31.4,18.2,31.4c25.8,0,60.2,0,86,0
	C123.1,122.3,133.2,104.9,125.2,90.9z M64,35.9c3.8,0,6.8,3.1,6.7,6.9l-0.8,32c-0.1,3.1-2.7,5.7-5.9,5.7s-5.8-2.5-5.9-5.7l-0.9-32
	C57.2,39.1,60.2,35.9,64,35.9z M64,101.2c-4.1,0-7.5-3.4-7.5-7.5c0-4.1,3.4-7.5,7.5-7.5s7.5,3.4,7.5,7.5
	C71.5,97.9,68.1,101.2,64,101.2z"/>
</svg>
